<svg viewBox="0 0 12 6" fill="none" xmlns="http://www.w3.org/2000/svg">
<path d="M8.22429 0.208939C8.4286 -0.0374144 8.79299 -0.0706992 9.03816 0.134595L11.7056 2.36808C12.0983 2.69694 12.0983 3.30306 11.7056 3.63192L9.03816 5.8654C8.79299 6.0707 8.4286 6.03741 8.22429 5.79106C8.01997 5.54471 8.0531 5.17858 8.29827 4.97328L10.6549 3L8.29827 1.02672C8.0531 0.821424 8.01997 0.455292 8.22429 0.208939Z" fill="currentColor"/>
<path d="M2.03919e-08 3.00001C9.12977e-09 2.67933 0.258723 2.41937 0.577873 2.41937L10.9796 2.41937C11.2987 2.41937 11.5575 2.67933 11.5575 3.00001C11.5575 3.32069 11.2987 3.58065 10.9796 3.58065L0.577873 3.58066C0.258723 3.58066 3.16541e-08 3.32069 2.03919e-08 3.00001Z" fill="currentColor"/>
</svg>
