<svg width="14" height="15" viewBox="0 0 14 15" fill="none" xmlns="http://www.w3.org/2000/svg">
<path fill-rule="evenodd" clip-rule="evenodd" d="M9.22404 4.70894C9.42836 4.46259 9.79274 4.4293 10.0379 4.6346L12.7053 6.86808C13.0981 7.19694 13.0981 7.80306 12.7053 8.13192L10.0379 10.3654C9.79274 10.5707 9.42836 10.5374 9.22404 10.2911C9.01973 10.0447 9.05285 9.67858 9.29803 9.47328L11.6547 7.5L9.29803 5.52672C9.05285 5.32142 9.01973 4.95529 9.22404 4.70894Z" fill="white"/>
<path fill-rule="evenodd" clip-rule="evenodd" d="M1 7.50008C1 7.1794 1.25872 6.91943 1.57787 6.91943L11.9796 6.91943C12.2987 6.91943 12.5575 7.17939 12.5575 7.50007C12.5575 7.82075 12.2987 8.08072 11.9796 8.08072L1.57787 8.08072C1.25872 8.08072 1 7.82076 1 7.50008Z" fill="white"/>
</svg>
