<svg width="24" height="24" viewBox="0 0 24 24" fill="none" xmlns="http://www.w3.org/2000/svg">
<path d="M11.9858 21.9999C10.9158 21.9999 9.93581 21.2999 9.61581 20.2299C9.49581 19.8299 9.72581 19.4199 10.1258 19.2999C10.5258 19.1799 10.9358 19.4099 11.0558 19.8099C11.2058 20.3199 11.7458 20.6099 12.2558 20.4599C12.5758 20.3699 12.8158 20.1199 12.9058 19.8099C13.0258 19.4099 13.4358 19.1899 13.8358 19.2999C14.2358 19.4199 14.4558 19.8299 14.3458 20.2299C14.1058 21.0399 13.4858 21.6599 12.6758 21.8999C12.4458 21.9699 12.2158 21.9999 11.9858 21.9999Z" fill="currentColor"/>
<path d="M11.9854 5.35C11.5754 5.35 11.2354 5.01 11.2354 4.6V2.75C11.2354 2.34 11.5754 2 11.9854 2C12.3954 2 12.7354 2.34 12.7354 2.75V4.6C12.7354 5.01 12.3954 5.35 11.9854 5.35Z" fill="currentColor"/>
<path d="M19.3854 18.3001H4.58543C4.29543 18.3001 4.03543 18.1401 3.91543 17.8801C3.79543 17.6201 3.82543 17.3201 3.99543 17.0901C3.99543 17.0901 5.06543 15.5401 5.06543 10.7701C5.06543 6.9501 8.17543 3.8501 11.9854 3.8501C15.7954 3.8501 18.9054 6.9501 18.9054 10.7701C18.9054 15.8801 19.8954 17.0001 19.9054 17.0101C20.1554 17.2101 20.2254 17.5201 20.1254 17.8201C20.0154 18.1201 19.7154 18.3001 19.3954 18.3001H19.3854ZM5.76543 16.8001H18.1254C17.7454 15.7401 17.3954 13.9101 17.3954 10.7701C17.3954 7.6301 14.9654 5.3501 11.9754 5.3501C8.98543 5.3501 6.56543 7.7801 6.56543 10.7701C6.56543 13.7601 6.14543 15.7301 5.76543 16.8001Z" fill="currentColor"/>
</svg>
