<svg width="64" height="64" viewBox="0 0 64 64" fill="none" xmlns="http://www.w3.org/2000/svg">
<path d="M56 42.6667V21.3334C55.999 20.3981 55.7522 19.4796 55.2841 18.6698C54.8161 17.8601 54.1433 17.1877 53.3333 16.7201L34.6667 6.0534C33.8559 5.5853 32.9362 5.33887 32 5.33887C31.0638 5.33887 30.1441 5.5853 29.3333 6.0534L10.6667 16.7201C9.8567 17.1877 9.18395 17.8601 8.7159 18.6698C8.24785 19.4796 8.00096 20.3981 8 21.3334V42.6667C8.00096 43.602 8.24785 44.5206 8.7159 45.3303C9.18395 46.14 9.8567 46.8124 10.6667 47.2801L29.3333 57.9467C30.1441 58.4148 31.0638 58.6613 32 58.6613C32.9362 58.6613 33.8559 58.4148 34.6667 57.9467L53.3333 47.2801C54.1433 46.8124 54.8161 46.14 55.2841 45.3303C55.7522 44.5206 55.999 43.602 56 42.6667Z" stroke="#6F7377" stroke-width="4" stroke-linecap="round" stroke-linejoin="round"/>
<path d="M8.71973 18.5601L31.9997 32.0267L55.2797 18.5601" stroke="currentColor" stroke-width="4" stroke-linecap="round" stroke-linejoin="round"/>
<path d="M32 58.88V32" stroke="currentColor" stroke-width="4" stroke-linecap="round" stroke-linejoin="round"/>
</svg>
