<svg width="65" height="64" viewBox="0 0 65 64" fill="none" xmlns="http://www.w3.org/2000/svg">
<g opacity="0.6">
<path d="M44.4977 54C43.8588 54 43.3403 53.5022 43.3403 52.8889V51.7756H41.0255C40.3866 51.7756 39.8681 51.2778 39.8681 50.6644C39.8681 50.0511 40.3866 49.5533 41.0255 49.5533H45.7268C46.5324 49.5533 47.243 49.0911 47.5393 48.3778C47.7338 47.9133 47.7268 47.4044 47.5208 46.9444C47.3148 46.4844 46.9375 46.1289 46.4537 45.9444L41.6759 44.1111C40.0509 43.4822 39.0023 41.9933 39 40.3156C39 39.2222 39.4421 38.1956 40.2477 37.4222C41.0532 36.6489 42.1227 36.2222 43.2616 36.22H43.3403V35.1111C43.3403 34.4978 43.8588 34 44.4977 34C45.1366 34 45.6551 34.4978 45.6551 35.1111V36.22H47.9699C48.6088 36.22 49.1273 36.7178 49.1273 37.3311C49.1273 37.9444 48.6088 38.4422 47.9699 38.4422H44.5463C44.5301 38.4444 44.5139 38.4444 44.4977 38.4444C44.4815 38.4444 44.4653 38.4444 44.4491 38.4422H43.2662C42.7454 38.4422 42.2569 38.6378 41.8889 38.9911C41.5208 39.3444 41.3194 39.8156 41.3194 40.3133C41.3194 41.08 41.7986 41.7622 42.5417 42.0489L47.3171 43.88C48.375 44.2867 49.2037 45.0622 49.6528 46.0689C50.1018 47.0733 50.1157 48.1867 49.6921 49.2C49.037 50.7644 47.4838 51.7756 45.7315 51.7756H45.6551V52.8889C45.6551 53.5022 45.1366 54 44.4977 54Z" fill="#6F7377"/>
<path d="M44.5 58C36.5049 58 30 51.7194 30 44C30 36.2806 36.5049 30 44.5 30C52.4951 30 59 36.2806 59 44C59 51.7194 52.4951 58 44.5 58ZM44.5 32.1538C37.7341 32.1538 32.2308 37.4674 32.2308 44C32.2308 50.5326 37.7341 55.8462 44.5 55.8462C51.2659 55.8462 56.7692 50.5326 56.7692 44C56.7692 37.4674 51.2659 32.1538 44.5 32.1538Z" fill="#6F7377"/>
<path d="M10.2143 47C8.44214 47 7 45.5477 7 43.763V13.5509C7 11.7662 8.44214 10.3139 10.2143 10.3139H17.7143V7.079C17.7143 6.48339 18.1943 6 18.7857 6C19.3771 6 19.8571 6.48339 19.8571 7.079V10.3139H39.1429V7.079C39.1429 6.48339 39.6229 6 40.2143 6C40.8057 6 41.2857 6.48339 41.2857 7.079V10.3139H48.7857C50.5579 10.3139 52 11.7662 52 13.5509V27.5779C52 28.1735 51.52 28.6569 50.9286 28.6569C50.3371 28.6569 49.8571 28.1735 49.8571 27.5779V23.2641H9.14286V43.763C9.14286 44.3586 9.62286 44.842 10.2143 44.842H27.3571C27.9486 44.842 28.4286 45.3254 28.4286 45.921C28.4286 46.5166 27.9486 47 27.3571 47H10.2143ZM49.8571 21.1061V13.5509C49.8571 12.9553 49.3771 12.4719 48.7857 12.4719H41.2857V17.869C41.2857 18.4647 40.8057 18.948 40.2143 18.948C39.6229 18.948 39.1429 18.4647 39.1429 17.869V12.4719H19.8571V17.869C19.8571 18.4647 19.3771 18.948 18.7857 18.948C18.1943 18.948 17.7143 18.4647 17.7143 17.869V12.4719H10.2143C9.62286 12.4719 9.14286 12.9553 9.14286 13.5509V21.1061H49.8571Z" fill="#6F7377"/>
</g>
</svg>
