<svg width="40" height="40" viewBox="0 0 40 40" fill="none" xmlns="http://www.w3.org/2000/svg">
<rect width="40" height="40" rx="20" fill="#6F7377"/>
<path d="M30 25.2222C30 25.6937 29.8084 26.1459 29.4675 26.4793C29.1265 26.8127 28.664 27 28.1818 27H11.8182C11.336 27 10.8735 26.8127 10.5325 26.4793C10.1916 26.1459 10 25.6937 10 25.2222V15.4444C10 14.9729 10.1916 14.5208 10.5325 14.1874C10.8735 13.854 11.336 13.6667 11.8182 13.6667H15.4545L17.2727 11H22.7273L24.5455 13.6667H28.1818C28.664 13.6667 29.1265 13.854 29.4675 14.1874C29.8084 14.5208 30 14.9729 30 15.4444V25.2222Z" stroke="white" stroke-width="1.8" stroke-linecap="round" stroke-linejoin="round"/>
<path d="M20 24C22.2091 24 24 22.2091 24 20C24 17.7909 22.2091 16 20 16C17.7909 16 16 17.7909 16 20C16 22.2091 17.7909 24 20 24Z" stroke="white" stroke-width="1.8" stroke-linecap="round" stroke-linejoin="round"/>
</svg>
