<svg width="24" height="24" viewBox="0 0 24 24" fill="none" xmlns="http://www.w3.org/2000/svg">
<path fill-rule="currentColor" clip-rule="currentColor" d="M12 3.00781C10.5204 3.00781 9.43561 3.27192 8.84392 4.13497C8.56442 4.54266 8.45217 5.00907 8.40032 5.45589C8.37496 5.67439 8.36238 5.90693 8.35614 6.14648H3.98067C2.88512 6.14648 2 7.03428 2 8.12883V18.0177C2 19.1122 2.88512 20 3.98067 20H20.0193C21.1149 20 22 19.1122 22 18.0177V8.12883C22 7.03429 21.1149 6.14648 20.0193 6.14648H15.6438C15.6375 5.90858 15.6249 5.67743 15.5997 5.46001C15.5478 5.01358 15.4356 4.54734 15.1566 4.1394C14.5655 3.27528 13.4817 3.00781 12 3.00781ZM14.855 7.64648C14.8699 7.64737 14.8849 7.64781 14.9 7.64781C14.9151 7.64781 14.9301 7.64737 14.945 7.64648H20.0193C20.2845 7.64648 20.5 7.86078 20.5 8.12883V18.0177C20.5 18.2857 20.2845 18.5 20.0193 18.5H3.98067C3.71548 18.5 3.5 18.2857 3.5 18.0177V8.12883C3.5 7.86078 3.71548 7.64648 3.98067 7.64648H9.055C9.06989 7.64737 9.08489 7.64781 9.10001 7.64781C9.11512 7.64781 9.13013 7.64737 9.14502 7.64648H14.855ZM14.1432 6.14648C14.1377 5.95796 14.1278 5.78858 14.1097 5.63312C14.0709 5.29954 14.0019 5.10828 13.9185 4.98622C13.7845 4.79035 13.4184 4.50781 12 4.50781C10.5797 4.50781 10.2144 4.7887 10.0811 4.98315C9.9981 5.10421 9.92909 5.29468 9.89032 5.6288C9.87215 5.78534 9.86217 5.95612 9.85668 6.14648H14.1432Z" fill="currentColor"/>
</svg>
