<svg width="25" height="24" viewBox="0 0 25 24" fill="none" xmlns="http://www.w3.org/2000/svg">
<g clip-path="url(#clip0_776_2638)">
<path fill-rule="evenodd" clip-rule="evenodd" d="M9.34392 4.13497C9.93561 3.27192 11.0204 3.00781 12.5 3.00781C13.9817 3.00781 15.0655 3.27528 15.6566 4.1394C15.9356 4.54734 16.0478 5.01358 16.0997 5.46001C16.1249 5.67743 16.1375 5.90858 16.1438 6.14648H20.5193C21.6149 6.14648 22.5 7.03429 22.5 8.12883V18.0177C22.5 19.1122 21.6149 20 20.5193 20H4.48067C3.38512 20 2.5 19.1122 2.5 18.0177V8.12883C2.5 7.03428 3.38512 6.14648 4.48067 6.14648H8.85614C8.86238 5.90693 8.87496 5.67439 8.90032 5.45589C8.95217 5.00907 9.06442 4.54266 9.34392 4.13497ZM14.6097 5.63312C14.6278 5.78858 14.6377 5.95796 14.6432 6.14648H10.3567C10.3622 5.95612 10.3722 5.78534 10.3903 5.6288C10.4291 5.29468 10.4981 5.10421 10.5811 4.98315C10.7144 4.7887 11.0797 4.50781 12.5 4.50781C13.9184 4.50781 14.2845 4.79035 14.4185 4.98622C14.5019 5.10828 14.5709 5.29954 14.6097 5.63312Z" fill="#D818A5"/>
</g>
<defs>
<clipPath id="clip0_776_2638">
<rect width="24" height="24" fill="white" transform="translate(0.5)"/>
</clipPath>
</defs>
</svg>
