<svg width="18" height="17" viewBox="0 0 20 20" fill="none" xmlns="http://www.w3.org/2000/svg">
<path fill-rule="evenodd" clip-rule="evenodd" d="M6.09998 2.94001C6.09998 1.64766 7.14763 0.600006 8.43998 0.600006H11.56C12.8523 0.600006 13.9 1.64766 13.9 2.94V3.52923C13.9 3.71509 13.8783 3.89589 13.8374 4.06923H17.56C18.8523 4.06923 19.9 5.11689 19.9 6.40923V17.06C19.9 18.3524 18.8523 19.4 17.56 19.4H2.43998C1.14763 19.4 0.0999756 18.3524 0.0999756 17.06V6.40924C0.0999756 5.11689 1.14763 4.06923 2.43998 4.06923H6.16259C6.12164 3.89589 6.09998 3.71509 6.09998 3.52923V2.94001ZM8.43998 4.06923H11.56C11.8582 4.06923 12.1 3.82747 12.1 3.52923V2.94C12.1 2.64177 11.8582 2.40001 11.56 2.40001H8.43998C8.14174 2.40001 7.89998 2.64177 7.89998 2.94001V3.52923C7.89998 3.82747 8.14174 4.06923 8.43998 4.06923ZM2.43998 5.86923C2.14174 5.86923 1.89998 6.111 1.89998 6.40924V17.06C1.89998 17.3582 2.14174 17.6 2.43998 17.6H17.56C17.8582 17.6 18.1 17.3582 18.1 17.06V6.40923C18.1 6.111 17.8582 5.86923 17.56 5.86923H2.43998Z" fill="currentColor"/>
</svg>
