<svg width="13" height="14" viewBox="0 0 13 14" fill="none" xmlns="http://www.w3.org/2000/svg">
<path d="M3.5 12.3478C3.5 12.995 3.62972 13 4.24997 13H8.74997C9.37022 13 9.5 12.995 9.5 12.3478C9.5 11.969 9.28325 11.631 8.948 11.4854C8.0885 11.1144 7.55675 10.209 7.625 9.21739C7.625 8.488 7.8185 8.40191 8.28575 8.19452C8.798 7.96678 9.49325 7.65765 9.98 6.43522L10.55 1.78261C10.4983 1.62687 10.4158 1.48522 10.307 1.36548C10.1 1.13774 9.82025 1.00783 9.51575 1H3.50825C3.20825 1 2.92625 1.12209 2.71325 1.34357C2.59325 1.46878 2.50325 1.61826 2.44775 1.78261L3.02075 6.43443C3.50692 7.65619 4.2011 7.96526 4.71242 8.19292L4.71425 8.19374C5.18225 8.40191 5.37575 8.488 5.3765 9.24556C5.444 10.2137 4.9115 11.1137 4.052 11.4854C3.716 11.6302 3.5 11.969 3.5 12.3478Z" stroke="currentColor" stroke-width="1.2"/>
<path d="M2.16667 3.08698H1.6724C1.05719 3.08698 0.587882 3.6372 0.684914 4.2447L0.897606 5.57634C1.05262 6.54683 1.88978 7.26089 2.87257 7.26089H3" stroke="currentColor" stroke-width="1.2" stroke-linecap="round"/>
<path d="M10.8333 3.08698H11.3276C11.9428 3.08698 12.4121 3.6372 12.3151 4.2447L12.1024 5.57634C11.9474 6.54683 11.1102 7.26089 10.1274 7.26089H10" stroke="currentColor" stroke-width="1.2" stroke-linecap="round"/>
</svg>
