<svg viewBox="0 0 17 16" fill="none" xmlns="http://www.w3.org/2000/svg">
<path fill-rule="evenodd" clip-rule="evenodd" d="M8.5 16C12.9183 16 16.5 12.4183 16.5 8C16.5 3.58172 12.9183 0 8.5 0C4.08172 0 0.5 3.58172 0.5 8C0.5 12.4183 4.08172 16 8.5 16ZM12.9416 6.45806C13.1955 6.20422 13.1955 5.79267 12.9416 5.53882C12.6878 5.28498 12.2763 5.28498 12.0224 5.53882L7.68203 9.8792L5.95983 8.15701C5.70599 7.90317 5.29444 7.90317 5.04059 8.15701C4.78675 8.41085 4.78675 8.8224 5.04059 9.07624L7.22241 11.2581C7.34431 11.38 7.50964 11.4484 7.68203 11.4484C7.85442 11.4484 8.01975 11.38 8.14165 11.2581L12.9416 6.45806Z" fill="white"/>
</svg>
