<svg width="17" height="16" viewBox="0 0 17 16" fill="none" xmlns="http://www.w3.org/2000/svg">
<path fill-rule="evenodd" clip-rule="evenodd" d="M15.0165 4.55804C14.8186 4.36553 14.502 4.36996 14.3095 4.56793L8.5013 10.5408L2.6931 4.56793C2.50058 4.36995 2.18403 4.36553 1.98606 4.55804C1.78809 4.75056 1.78366 5.06711 1.97617 5.26508L7.85206 11.3076C7.93591 11.3939 8.03649 11.4634 8.14792 11.5109C8.25951 11.5585 8.37964 11.5832 8.5013 11.5832C8.62296 11.5832 8.74309 11.5585 8.85468 11.5109C8.96612 11.4634 9.06643 11.3941 9.15028 11.3079L15.0264 5.26508C15.2189 5.06711 15.2145 4.75056 15.0165 4.55804Z" fill="#36383A"/>
</svg>
