<svg width="24" height="25" viewBox="0 0 24 25" fill="none" xmlns="http://www.w3.org/2000/svg">
<path d="M21 11.9384L12.49 19.9644C11.4475 20.9476 10.0335 21.5 8.55912 21.5C7.08475 21.5 5.67077 20.9476 4.62823 19.9644C3.58569 18.9811 3 17.6476 3 16.2571C3 14.8665 3.58569 13.533 4.62823 12.5497L13.1382 4.52375C13.8332 3.86825 14.7759 3.5 15.7588 3.5C16.7417 3.5 17.6844 3.86825 18.3794 4.52375C19.0744 5.17924 19.4649 6.06829 19.4649 6.9953C19.4649 7.92231 19.0744 8.81135 18.3794 9.46685L9.86016 17.4928C9.51265 17.8206 9.04132 18.0047 8.54986 18.0047C8.0584 18.0047 7.58708 17.8206 7.23956 17.4928C6.89205 17.1651 6.69682 16.7206 6.69682 16.2571C6.69682 15.7935 6.89205 15.349 7.23956 15.0213L15.1013 7.61537" stroke="#2B2D30" stroke-width="1.8" stroke-linecap="round" stroke-linejoin="round"/>
</svg>
