<svg width="18" height="18" viewBox="0 0 21 20" fill="none" xmlns="http://www.w3.org/2000/svg">
<path d="M19.6104 9.43839L11.1004 17.4644C10.0578 18.4476 8.64384 19 7.16947 19C5.6951 19 4.28112 18.4476 3.23858 17.4644C2.19604 16.4811 1.61035 15.1476 1.61035 13.7571C1.61035 12.3665 2.19604 11.033 3.23858 10.0497L11.7486 2.02375C12.4436 1.36825 13.3862 1 14.3692 1C15.3521 1 16.2947 1.36825 16.9898 2.02375C17.6848 2.67924 18.0752 3.56829 18.0752 4.4953C18.0752 5.42231 17.6848 6.31135 16.9898 6.96685L8.47051 14.9928C8.123 15.3206 7.65167 15.5047 7.16021 15.5047C6.66876 15.5047 6.19743 15.3206 5.84991 14.9928C5.5024 14.6651 5.30717 14.2206 5.30717 13.7571C5.30717 13.2935 5.5024 12.849 5.84991 12.5213L13.7117 5.11537" stroke="currentColor" stroke-width="1.8" stroke-linecap="round" stroke-linejoin="round"/>
</svg>
