<svg width="24" height="24" viewBox="0 0 24 24" fill="none" xmlns="http://www.w3.org/2000/svg">
<path d="M19.7992 5.17059C20.0669 4.9028 20.0669 4.46863 19.7992 4.20084C19.5314 3.93305 19.0972 3.93305 18.8294 4.20084L12 11.0303L5.17059 4.20084C4.9028 3.93305 4.46863 3.93305 4.20084 4.20084C3.93305 4.46863 3.93305 4.9028 4.20084 5.17059L11.0303 12L4.20084 18.8294C3.93305 19.0972 3.93305 19.5314 4.20084 19.7992C4.46863 20.0669 4.9028 20.0669 5.17059 19.7992L12 12.9697L18.8294 19.7992C19.0972 20.0669 19.5314 20.0669 19.7992 19.7992C20.0669 19.5314 20.0669 19.0972 19.7992 18.8294L12.9697 12L19.7992 5.17059Z" fill="#202122"/>
</svg>
