<svg width="24" height="24" viewBox="0 0 24 24" fill="none" xmlns="http://www.w3.org/2000/svg">
<circle cx="12" cy="12" r="10" stroke="currentColor" stroke-width="1.8"/>
<path fill-rule="evenodd" clip-rule="evenodd" d="M11.5623 13.4635C11.5623 13.1874 11.7862 12.9635 12.0623 12.9635H14.629C14.9051 12.9635 15.129 13.1874 15.129 13.4635C15.129 13.7397 14.9051 13.9635 14.629 13.9635H12.0623C11.7862 13.9635 11.5623 13.7397 11.5623 13.4635Z" fill="currentColor"/>
<path fill-rule="evenodd" clip-rule="evenodd" d="M9.11712 10.1837C9.29754 9.97469 9.61327 9.95147 9.82232 10.1319L11.5334 11.6085C11.6435 11.7035 11.7068 11.8417 11.7068 11.9871C11.7068 12.1325 11.6435 12.2706 11.5334 12.3656L9.82232 13.8423C9.61327 14.0227 9.29754 13.9995 9.11712 13.7904C8.93671 13.5813 8.95993 13.2656 9.16899 13.0852L10.4415 11.9871L9.16899 10.889C8.95993 10.7085 8.93671 10.3928 9.11712 10.1837Z" fill="currentColor"/>
<path fill-rule="evenodd" clip-rule="evenodd" d="M6.33204 7.76306C6.27637 7.81149 6.26016 7.86036 6.26016 7.89771V16.1016C6.26016 16.139 6.27637 16.1879 6.33204 16.2363C6.38872 16.2856 6.47916 16.3255 6.59214 16.3255H17.4079C17.5208 16.3255 17.6113 16.2856 17.668 16.2363C17.7236 16.1879 17.7398 16.139 17.7398 16.1016V7.89771C17.7398 7.86036 17.7236 7.81149 17.668 7.76306C17.6113 7.71374 17.5208 7.67383 17.4079 7.67383H6.59214C6.47916 7.67383 6.38872 7.71374 6.33204 7.76306ZM5.26016 7.89771C5.26016 7.15869 5.92413 6.67383 6.59214 6.67383H17.4079C18.0759 6.67383 18.7398 7.15869 18.7398 7.89771V16.1016C18.7398 16.8407 18.0759 17.3255 17.4079 17.3255H6.59214C5.92413 17.3255 5.26016 16.8407 5.26016 16.1016V7.89771Z" fill="currentColor"/>
</svg>
