<svg width="24" height="24" viewBox="0 0 24 24" fill="none" xmlns="http://www.w3.org/2000/svg">
<g clip-path="url(#clip0_317_36760)">
<path d="M21.0975 7.16668L12.59 2.76835C12.4076 2.67415 12.2053 2.625 12 2.625C11.7947 2.625 11.5924 2.67415 11.41 2.76835L2.9025 7.16668C2.81894 7.20995 2.74889 7.27536 2.69999 7.35575C2.65109 7.43614 2.62523 7.52842 2.62523 7.62252C2.62523 7.71661 2.65109 7.80889 2.69999 7.88929C2.74889 7.96968 2.81894 8.03508 2.9025 8.07835L11.41 12.4792C11.5924 12.5734 11.7947 12.6225 12 12.6225C12.2053 12.6225 12.4076 12.5734 12.59 12.4792L21.0975 8.08335C21.181 8.04008 21.2511 7.97468 21.3 7.89429C21.3489 7.81389 21.3748 7.72161 21.3748 7.62752C21.3748 7.53342 21.3489 7.44114 21.3 7.36075C21.2511 7.28036 21.181 7.21495 21.0975 7.17168V7.16668Z" stroke="currentColor" stroke-width="1.25" stroke-linecap="round" stroke-linejoin="round"/>
<path d="M6.25 9.8125L2.9025 11.5442C2.81894 11.5874 2.74889 11.6528 2.69999 11.7332C2.65109 11.8136 2.62523 11.9059 2.62523 12C2.62523 12.0941 2.65109 12.1864 2.69999 12.2668C2.74889 12.3472 2.81894 12.4126 2.9025 12.4558L11.41 16.8567C11.5924 16.9509 11.7947 17 12 17C12.2053 17 12.4076 16.9509 12.59 16.8567L21.0975 12.4558C21.181 12.4126 21.2511 12.3472 21.3 12.2668C21.3489 12.1864 21.3748 12.0941 21.3748 12C21.3748 11.9059 21.3489 11.8136 21.3 11.7332C21.2511 11.6528 21.181 11.5874 21.0975 11.5442L17.75 9.8125" stroke="currentColor" stroke-width="1.25" stroke-linecap="round" stroke-linejoin="round"/>
<path d="M6.25 14.1875L2.9025 15.9167C2.81894 15.9599 2.74889 16.0253 2.69999 16.1057C2.65109 16.1861 2.62523 16.2784 2.62523 16.3725C2.62523 16.4666 2.65109 16.5589 2.69999 16.6393C2.74889 16.7197 2.81894 16.7851 2.9025 16.8283L11.41 21.2292C11.5924 21.3234 11.7947 21.3725 12 21.3725C12.2053 21.3725 12.4076 21.3234 12.59 21.2292L21.0975 16.8333C21.181 16.7901 21.2511 16.7247 21.3 16.6443C21.3489 16.5639 21.3748 16.4716 21.3748 16.3775C21.3748 16.2834 21.3489 16.1911 21.3 16.1107C21.2511 16.0303 21.181 15.9649 21.0975 15.9217L17.75 14.1875" stroke="currentColor" stroke-width="1.25" stroke-linecap="round" stroke-linejoin="round"/>
</g>
<defs>
<clipPath id="clip0_317_36760">
<rect width="20" height="20" fill="white" transform="translate(2 2)"/>
</clipPath>
</defs>
</svg>
