<svg viewBox="0 0 32 32" fill="none" xmlns="http://www.w3.org/2000/svg">
<path d="M14.6 4.8H4.8C4.05739 4.8 3.3452 5.095 2.8201 5.6201C2.295 6.14521 2 6.8574 2 7.6V27.2C2 27.9426 2.295 28.6548 2.8201 29.1799C3.3452 29.705 4.05739 30 4.8 30H24.4C25.1426 30 25.8548 29.705 26.3799 29.1799C26.905 28.6548 27.2 27.9426 27.2 27.2V17.4" stroke="black" stroke-width="2.8" stroke-linecap="round" stroke-linejoin="round"/>
<path d="M24.9737 2.86238C25.5259 2.31021 26.2748 2 27.0557 2C27.8366 2 28.5855 2.31021 29.1377 2.86238C29.6898 3.41455 30 4.16345 30 4.94433C30 5.72522 29.6898 6.47412 29.1377 7.02629L15.9519 20.212L10.4 21.6L11.788 16.0481L24.9737 2.86238Z" stroke="black" stroke-width="2.8" stroke-linecap="round" stroke-linejoin="round"/>
</svg>
