<svg width="24" height="24" viewBox="0 0 24 24" fill="none" xmlns="http://www.w3.org/2000/svg">
<g id="Type=edit, Size=sm">
<g id="Group 1658">
<path id="Vector" d="M11.1 4.79999H4.8C4.32261 4.79999 3.86477 4.98963 3.52721 5.3272C3.18964 5.66476 3 6.1226 3 6.59999V19.2C3 19.6774 3.18964 20.1352 3.52721 20.4728C3.86477 20.8103 4.32261 21 4.8 21H17.4C17.8774 21 18.3352 20.8103 18.6728 20.4728C19.0104 20.1352 19.2 19.6774 19.2 19.2V12.9" stroke="currentColor" stroke-width="1.8" stroke-linecap="round" stroke-linejoin="round"/>
<path id="Vector_2" d="M17.7688 3.55438C18.1238 3.19942 18.6052 3 19.1072 3C19.6092 3 20.0906 3.19942 20.4456 3.55438C20.8006 3.90935 21 4.39079 21 4.89279C21 5.39478 20.8006 5.87622 20.4456 6.23119L11.9691 14.7077L8.39999 15.6L9.29226 12.0309L17.7688 3.55438Z" stroke="currentColor" stroke-width="1.8" stroke-linecap="round" stroke-linejoin="round"/>
</g>
</g>
</svg>
