<svg width="14" height="14" viewBox="0 0 14 14" fill="none" xmlns="http://www.w3.org/2000/svg">
<g id="Type=edit, Size=xs">
<g id="Group 1658">
<path id="Vector" d="M6.5 2.99988H3C2.73478 2.99988 2.48043 3.10523 2.29289 3.29277C2.10536 3.48031 2 3.73466 2 3.99988V10.9999C2 11.2651 2.10536 11.5194 2.29289 11.707C2.48043 11.8945 2.73478 11.9999 3 11.9999H10C10.2652 11.9999 10.5196 11.8945 10.7071 11.707C10.8946 11.5194 11 11.2651 11 10.9999V7.49988" stroke="currentColor" stroke-width="1.2" stroke-linecap="round" stroke-linejoin="round"/>
<path id="Vector_2" d="M10.2049 2.30799C10.4021 2.11079 10.6696 2 10.9485 2C11.2273 2 11.4948 2.11079 11.692 2.30799C11.8892 2.50519 12 2.77266 12 3.05155C12 3.33044 11.8892 3.5979 11.692 3.7951L6.98282 8.50429L5 9L5.4957 7.01718L10.2049 2.30799Z" stroke="currentColor" stroke-width="1.2" stroke-linecap="round" stroke-linejoin="round"/>
</g>
</g>
</svg>
