<svg width="24" height="25" viewBox="0 0 24 25" fill="none" xmlns="http://www.w3.org/2000/svg">
<mask id="path-1-inside-1" fill="white">
<path d="M9.62109 16.8789L6.08556 13.3434L16.7782 2.65076C17.1687 2.26023 17.8019 2.26023 18.1924 2.65076L20.3137 4.77208C20.7042 5.1626 20.7042 5.79577 20.3137 6.18629L9.62109 16.8789Z"/>
</mask>
<path d="M9.62109 16.8789L6.08556 13.3434L16.7782 2.65076C17.1687 2.26023 17.8019 2.26023 18.1924 2.65076L20.3137 4.77208C20.7042 5.1626 20.7042 5.79577 20.3137 6.18629L9.62109 16.8789Z" stroke="#2B2D30" stroke-width="3.6" mask="url(#path-1-inside-1)"/>
<path d="M4.62199 18.6423C4.44197 18.6838 4.28063 18.5225 4.32218 18.3425L5.29289 14.136L8.82843 17.6716L4.62199 18.6423Z" fill="#2B2D30"/>
<line x1="0.9" y1="-0.9" x2="19.1" y2="-0.9" transform="matrix(0.999987 0.00501737 0.00501762 0.999987 2 21.5)" stroke="#2B2D30" stroke-width="1.8" stroke-linecap="round"/>
<line x1="15.6364" y1="4.8636" x2="17.7577" y2="6.98492" stroke="#2B2D30" stroke-width="1.8"/>
</svg>
