<svg width="20" height="19" viewBox="0 0 20 19" fill="none"
  xmlns="http://www.w3.org/2000/svg">
  <mask id="path-1-inside-1" fill="currentColor">
    <path d="M7.62109 15.3789L4.08556 11.8434L14.7782 1.15076C15.1687 0.760232 15.8019 0.760232 16.1924 1.15076L18.3137 3.27208C18.7042 3.6626 18.7042 4.29577 18.3137 4.68629L7.62109 15.3789Z" />
  </mask>
  <path d="M7.62109 15.3789L4.08556 11.8434L14.7782 1.15076C15.1687 0.760232 15.8019 0.760232 16.1924 1.15076L18.3137 3.27208C18.7042 3.6626 18.7042 4.29577 18.3137 4.68629L7.62109 15.3789Z" stroke="currentColor" stroke-width="3.6" mask="url(#path-1-inside-1)"/>
  <path d="M2.62199 17.1423C2.44197 17.1838 2.28063 17.0225 2.32218 16.8425L3.29289 12.636L6.82843 16.1716L2.62199 17.1423Z" fill="currentColor"/>
</svg>
