<svg width="103" height="24" viewBox="0 0 103 24" fill="none" xmlns="http://www.w3.org/2000/svg">
<g clip-path="url(#clip0)">
<path d="M18.563 0H6.80312C6.02301 0.00789165 5.25209 0.16937 4.53439 0.475215C3.81669 0.78106 3.16626 1.22528 2.62025 1.78251C2.07424 2.33974 1.64334 2.99906 1.35215 3.72284C1.06096 4.44661 0.915189 5.22065 0.923162 6.00076V17.9992C0.907864 19.5745 1.51859 21.0914 2.62114 22.2166C3.7237 23.3418 5.22786 23.9833 6.80312 24H18.563C20.1383 23.9833 21.6424 23.3418 22.745 22.2166C23.8475 21.0914 24.4583 19.5745 24.443 17.9992V6.00076C24.451 5.22065 24.3052 4.44661 24.014 3.72284C23.7228 2.99906 23.2919 2.33974 22.7459 1.78251C22.1999 1.22528 21.5495 0.78106 20.8318 0.475215C20.1141 0.16937 19.3431 0.00789165 18.563 0V0ZM18.563 1.76972C19.6727 1.78247 20.732 2.23471 21.5087 3.02728C22.2854 3.81985 22.7161 4.88807 22.7065 5.99774V17.9992C22.7161 19.1089 22.2854 20.1771 21.5087 20.9697C20.732 21.7623 19.6727 22.2145 18.563 22.2273H6.80312C5.69321 22.2145 4.6336 21.7624 3.8564 20.9699C3.0792 20.1774 2.64778 19.1092 2.65665 17.9992V6.00076C2.64778 4.89081 3.0792 3.82259 3.8564 3.03011C4.6336 2.23763 5.69321 1.7855 6.80312 1.77274L18.563 1.76972Z" fill="#19272E"/>
<path d="M35.7075 8.75797C36.4202 9.38815 36.7766 10.3415 36.7766 11.6179V16.5103H34.4451V15.4322C33.976 16.2375 33.1053 16.6352 31.8328 16.6251C31.2458 16.6444 30.6616 16.5362 30.1205 16.308C29.6665 16.1097 29.2803 15.7833 29.0091 15.3688C28.7522 14.9692 28.6188 14.5028 28.6256 14.0279C28.612 13.6642 28.6874 13.3027 28.8453 12.9748C29.0032 12.6469 29.2388 12.3626 29.5316 12.1464C30.1356 11.6894 31.0627 11.4619 32.313 11.4639H34.2911C34.3055 11.2315 34.2685 10.9987 34.183 10.7821C34.0974 10.5655 33.9652 10.3704 33.7958 10.2106C33.3713 9.88916 32.8441 9.73348 32.313 9.7727C31.8556 9.77333 31.4011 9.84569 30.9661 9.98712C30.5601 10.1134 30.1797 10.3107 29.8426 10.57L28.9366 8.83347C29.448 8.48292 30.016 8.22341 30.6158 8.06639C31.2732 7.88728 31.9517 7.79688 32.6331 7.79761C33.972 7.79761 34.9968 8.11773 35.7075 8.75797ZM33.5935 14.6711C33.924 14.4741 34.1734 14.1657 34.2972 13.8014V12.9256H32.5908C31.5701 12.9256 31.0597 13.2598 31.0597 13.9282C31.0567 14.0727 31.0883 14.2158 31.1519 14.3455C31.2155 14.4753 31.3091 14.588 31.4251 14.6742C31.7292 14.876 32.0906 14.9736 32.4549 14.952C32.8522 14.9601 33.244 14.8588 33.5875 14.6591L33.5935 14.6711Z" fill="#19272E"/>
<path d="M40.1617 16.0604C39.4588 15.7057 38.8689 15.1618 38.4584 14.49C38.0471 13.8028 37.8378 13.0136 37.8544 12.2129C37.8377 11.4112 38.047 10.621 38.4584 9.93278C38.8689 9.26093 39.4588 8.71705 40.1617 8.36238C40.9252 7.97707 41.771 7.78325 42.6261 7.79763C43.4499 7.77786 44.2647 7.97247 44.9907 8.36238C45.6494 8.72259 46.1691 9.29223 46.4675 9.9811L44.5377 11.017C44.3603 10.6561 44.0837 10.3534 43.7402 10.1442C43.3968 9.93507 43.0009 9.8282 42.5989 9.83614C42.3014 9.82771 42.0053 9.87986 41.7286 9.9894C41.4519 10.0989 41.2003 10.2636 40.9892 10.4734C40.7712 10.7054 40.6024 10.9791 40.4929 11.278C40.3834 11.577 40.3355 11.895 40.352 12.2129C40.3357 12.5303 40.3838 12.8478 40.4933 13.1462C40.6028 13.4446 40.7715 13.7178 40.9892 13.9494C41.1999 14.1597 41.4514 14.3248 41.7282 14.4343C42.005 14.5439 42.3013 14.5957 42.5989 14.5866C43.0001 14.5965 43.3956 14.4904 43.738 14.2809C44.0803 14.0714 44.3549 13.7675 44.5287 13.4058L46.4585 14.4598C46.1513 15.1368 45.6332 15.6962 44.9817 16.0543C44.2567 16.4477 43.4415 16.6444 42.617 16.6251C41.765 16.638 40.9225 16.4442 40.1617 16.0604Z" fill="#19272E"/>
<path d="M54.0997 8.75798C54.8125 9.38815 55.1688 10.3415 55.1688 11.6179V16.5103H52.8404V15.4322C52.3753 16.2375 51.5045 16.6352 50.2281 16.6251C49.6399 16.6402 49.0556 16.5268 48.5157 16.2929C48.0647 16.0985 47.6797 15.7775 47.4074 15.3688C47.1505 14.9692 47.0171 14.5028 47.0239 14.0279C47.011 13.6643 47.0868 13.3031 47.2446 12.9753C47.4025 12.6476 47.6376 12.3631 47.9299 12.1464C48.5339 11.6894 49.461 11.4619 50.7113 11.4639H52.6894C52.7038 11.2315 52.6668 10.9987 52.5812 10.7821C52.4956 10.5655 52.3635 10.3704 52.1941 10.2106C51.7695 9.88917 51.2424 9.73349 50.7113 9.7727C50.2539 9.77334 49.7994 9.84569 49.3644 9.98712C48.9562 10.1127 48.5737 10.3101 48.2349 10.57L47.344 8.83348C47.8564 8.48293 48.4255 8.22343 49.0261 8.0664C49.6825 7.88708 50.36 7.79668 51.0405 7.79761C52.3693 7.79761 53.389 8.11774 54.0997 8.75798ZM51.9857 14.6712C52.3152 14.4737 52.5636 14.1654 52.6864 13.8014V12.9256H50.9801C49.9593 12.9256 49.4489 13.2598 49.4489 13.9282C49.445 14.0755 49.4771 14.2215 49.5423 14.3536C49.6076 14.4857 49.7041 14.5999 49.8234 14.6863C50.1274 14.8881 50.4889 14.9856 50.8532 14.9641C51.2505 14.9671 51.641 14.8616 51.9827 14.6591L51.9857 14.6712Z" fill="#19272E"/>
<path d="M65.9259 4.672V16.4983H63.5522V15.5108C62.9361 16.2537 62.0432 16.6252 60.8735 16.6252C60.1092 16.6367 59.355 16.4505 58.684 16.0846C58.0329 15.7276 57.4983 15.1908 57.1438 14.5384C56.7614 13.824 56.57 13.023 56.5881 12.213C56.5704 11.402 56.7618 10.6001 57.1438 9.88453C57.4983 9.23208 58.0329 8.69534 58.684 8.33829C59.3555 7.97365 60.1094 7.78751 60.8735 7.79771C61.3512 7.77134 61.8288 7.85048 62.2724 8.02951C62.7161 8.20854 63.1149 8.48306 63.4405 8.83357V4.672H65.9259ZM62.8667 13.9404C63.0793 13.7078 63.2438 13.4354 63.3506 13.1389C63.4573 12.8424 63.5043 12.5277 63.4888 12.213C63.5046 11.8977 63.4577 11.5825 63.3509 11.2855C63.2441 10.9884 63.0796 10.7155 62.8667 10.4825C62.6665 10.2711 62.4239 10.1043 62.1549 9.99293C61.8859 9.88157 61.5964 9.82817 61.3053 9.83621C61.0116 9.82825 60.7194 9.88161 60.4475 9.99289C60.1755 10.1042 59.9298 10.2709 59.7259 10.4825C59.5134 10.7157 59.3493 10.9887 59.243 11.2857C59.1367 11.5827 59.0904 11.8979 59.1068 12.213C59.0907 12.5275 59.1371 12.8422 59.2434 13.1387C59.3496 13.4352 59.5136 13.7077 59.7259 13.9404C59.9298 14.152 60.1755 14.3187 60.4475 14.43C60.7194 14.5413 61.0116 14.5946 61.3053 14.5867C61.5964 14.5947 61.8859 14.5413 62.1549 14.43C62.4239 14.3186 62.6665 14.1518 62.8667 13.9404Z" fill="#19272E"/>
<path d="M75.9371 12.9135H69.4502C69.5524 13.4247 69.8491 13.8762 70.2777 14.1729C70.7547 14.492 71.3197 14.6536 71.8934 14.6349C72.3049 14.6439 72.7145 14.5763 73.1014 14.4356C73.4614 14.2916 73.789 14.077 74.0647 13.8044L75.3875 15.2389C74.5822 16.1631 73.4024 16.6251 71.8481 16.6251C70.9607 16.6433 70.0817 16.4497 69.2841 16.0604C68.5711 15.7135 67.9734 15.1682 67.5627 14.49C67.1538 13.8018 66.9446 13.0133 66.9587 12.2129C66.9492 11.415 67.158 10.6296 67.5627 9.94185C67.945 9.27722 68.5029 8.73075 69.1754 8.36238C69.8878 7.99529 70.6768 7.80175 71.4782 7.79756C72.2796 7.79336 73.0707 7.97861 73.7869 8.33822C74.4599 8.6917 75.0166 9.2317 75.3905 9.89353C75.7882 10.6117 75.9882 11.4224 75.9704 12.2431C75.9784 12.2773 75.9673 12.5008 75.9371 12.9135ZM70.1176 10.1563C69.7254 10.4916 69.475 10.9633 69.417 11.476H73.645C73.581 10.9672 73.3282 10.501 72.9366 10.1698C72.5451 9.83865 72.0433 9.66674 71.531 9.68817C71.019 9.66984 70.5174 9.83595 70.1176 10.1563Z" fill="#19272E"/>
<path d="M90.8617 8.75803C91.4919 9.38821 91.808 10.3365 91.81 11.6029V16.4983H89.3246V11.9683C89.3637 11.4311 89.2142 10.8971 88.9018 10.4583C88.7523 10.2876 88.5657 10.1533 88.3563 10.0659C88.1469 9.9785 87.9203 9.9402 87.6938 9.95395C87.4353 9.94188 87.1773 9.98645 86.9379 10.0845C86.6984 10.1826 86.4833 10.3318 86.3076 10.5217C85.9348 10.9986 85.7529 11.5972 85.7972 12.2008V16.4983H83.3117V11.9683C83.3117 10.6214 82.7701 9.94691 81.687 9.94489C81.4308 9.9334 81.1752 9.9783 80.9383 10.0764C80.7014 10.1745 80.4889 10.3234 80.3159 10.5127C79.9746 10.8871 79.8055 11.4489 79.8055 12.1918V16.4983H77.3291V7.92451H79.7028V8.91205C80.0248 8.55002 80.4257 8.26689 80.8746 8.08457C81.3539 7.88984 81.8672 7.79232 82.3846 7.79767C82.9544 7.78766 83.5187 7.90963 84.0335 8.15403C84.5139 8.38858 84.9212 8.74989 85.2113 9.19895C85.5632 8.7471 86.0205 8.38833 86.5431 8.15403C87.0966 7.90611 87.6974 7.78142 88.3038 7.78861C88.7737 7.7672 89.2431 7.84216 89.683 8.00887C90.1229 8.17558 90.524 8.43053 90.8617 8.75803Z" fill="#19272E"/>
<path d="M102.075 7.92456L98.2002 17.0238C97.8076 18.0144 97.3214 18.709 96.7415 19.1137C96.1227 19.528 95.3901 19.7391 94.6457 19.7177C94.1969 19.7164 93.7509 19.6472 93.3229 19.5123C92.9313 19.3978 92.5681 19.2023 92.2568 18.9385L93.1628 17.1688C93.3574 17.3406 93.5815 17.4756 93.8242 17.5674C94.0598 17.6607 94.3108 17.7088 94.5641 17.7094C94.8605 17.7228 95.1529 17.6367 95.3946 17.4648C95.6479 17.2406 95.8436 16.9589 95.9654 16.6433L95.9986 16.5618L92.284 7.92456H94.845L97.261 13.7411L99.677 7.92456H102.075Z" fill="#19272E"/>
<path d="M11.9825 4.49377H14.2113L8.93837 19.5062H6.72168L11.9825 4.49377Z" fill="#E5007B"/>
<path d="M16.4278 4.49377H18.6445L13.3837 19.5062H11.167L16.4278 4.49377Z" fill="#E5007B"/>
</g>
<defs>
<clipPath id="clip0">
<rect width="101.152" height="24" fill="white" transform="translate(0.923828)"/>
</clipPath>
</defs>
</svg>

