<svg width="20" height="20" viewBox="0 0 20 20" fill="none" xmlns="http://www.w3.org/2000/svg">
<path fill-rule="evenodd" clip-rule="evenodd" d="M1.8 1.8V9.2H7.2V1.8H1.8ZM1 0C0.44772 0 0 0.44772 0 1V10C0 10.5523 0.44772 11 1 11H8C8.5523 11 9 10.5523 9 10V1C9 0.44772 8.5523 0 8 0H1ZM18.2 10.8V18.2H12.8V10.8H18.2ZM20 19C20 19.5523 19.5523 20 19 20H12C11.4477 20 11 19.5523 11 19V10C11 9.4477 11.4477 9 12 9H19C19.5523 9 20 9.4477 20 10V19ZM1.8 18.2V14.8H7.2V18.2H1.8ZM0 14C0 13.4477 0.44772 13 1 13H8C8.5523 13 9 13.4477 9 14V19C9 19.5523 8.5523 20 8 20H1C0.44772 20 0 19.5523 0 19V14ZM18.2 1.80002V5.20002H12.8V1.80002H18.2ZM20 6.00002C20 6.55231 19.5523 7.00002 19 7.00002H12C11.4477 7.00002 11 6.55231 11 6.00002V1.00002C11 0.44774 11.4477 2.00272e-05 12 2.00272e-05H19C19.5523 2.00272e-05 20 0.44774 20 1.00002V6.00002Z" fill="currentColor"/>
</svg>
