<svg width="14" height="14" viewBox="0 0 14 14" fill="none" xmlns="http://www.w3.org/2000/svg">
<g id="Type=github, Size=xs">
<path id="Vector" d="M6.99997 0C5.33781 7.0669e-05 3.72992 0.606542 2.46398 1.7109C1.19804 2.81525 0.356667 4.34543 0.0904117 6.02763C-0.175844 7.70983 0.15039 9.43428 1.01074 10.8924C1.87109 12.3506 3.20942 13.4473 4.78625 13.9863C5.13625 14.0491 5.2675 13.8338 5.2675 13.6453C5.2675 13.4749 5.25874 12.9097 5.25874 12.3086C3.49999 12.6406 3.045 11.8691 2.905 11.4654C2.74965 11.0727 2.50339 10.7248 2.1875 10.4516C1.94251 10.317 1.59251 9.98506 2.17875 9.97611C2.4026 10.001 2.61729 10.0809 2.80464 10.2089C2.99199 10.337 3.14647 10.5095 3.255 10.7117C3.35073 10.8881 3.47947 11.0433 3.63383 11.1685C3.78818 11.2938 3.96512 11.3866 4.15451 11.4416C4.3439 11.4966 4.54201 11.5127 4.7375 11.4891C4.93299 11.4655 5.122 11.4025 5.29372 11.3038C5.32402 10.939 5.48262 10.5978 5.73998 10.3439C4.18249 10.1645 2.555 9.54546 2.555 6.80027C2.54516 6.08698 2.80188 5.39686 3.2725 4.87144C3.05849 4.2515 3.08353 3.57116 3.3425 2.96952C3.3425 2.96952 3.92872 2.78112 5.26748 3.70517C6.41288 3.38218 7.62206 3.38218 8.76746 3.70517C10.1062 2.77216 10.6924 2.96952 10.6924 2.96952C10.9514 3.57116 10.9765 4.25151 10.7624 4.87144C11.2345 5.39596 11.4914 6.08668 11.4799 6.80027C11.4799 9.55444 9.84369 10.1645 8.28621 10.3439C8.45326 10.5175 8.58192 10.726 8.66345 10.9551C8.74498 11.1842 8.77747 11.4286 8.75871 11.6717C8.75871 12.6316 8.74995 13.4031 8.74995 13.6454C8.74995 13.8338 8.8812 14.0581 9.2312 13.9863C10.8053 13.4429 12.1397 12.3436 12.9964 10.8847C13.8531 9.42585 14.1762 7.70228 13.9081 6.02171C13.64 4.34114 12.7982 2.81295 11.5328 1.70994C10.2674 0.606927 8.66085 0.000886298 6.99997 0Z" fill="currentColor"/>
</g>
</svg>
