<svg width="24" height="24" viewBox="0 0 24 24" fill="none" xmlns="http://www.w3.org/2000/svg">
<g id="Type=github, Size=sm">
<path id="Vector" d="M12 2C9.62545 2.0001 7.32845 2.82316 5.51997 4.32193C3.71148 5.8207 2.50952 7.89737 2.12916 10.1804C1.74879 12.4633 2.21484 14.8037 3.44392 16.7826C4.67299 18.7615 6.58488 20.2499 8.8375 20.9814C9.3375 21.0666 9.52499 20.7744 9.52499 20.5187C9.52499 20.2874 9.51248 19.5203 9.51248 18.7046C6.99999 19.1551 6.35 18.108 6.15 17.5601C5.92808 17.0273 5.57628 16.555 5.12501 16.1843C4.77501 16.0016 4.27501 15.5512 5.1125 15.539C5.43228 15.5728 5.73899 15.6812 6.00663 15.855C6.27427 16.0288 6.49496 16.2628 6.64999 16.5374C6.78676 16.7767 6.97067 16.9874 7.19118 17.1573C7.41169 17.3273 7.66446 17.4532 7.93502 17.5279C8.20557 17.6025 8.48859 17.6244 8.76786 17.5923C9.04712 17.5603 9.31715 17.4748 9.56245 17.3409C9.60574 16.8458 9.83231 16.3828 10.2 16.0382C7.97499 15.7947 5.65 14.9546 5.65 11.2289C5.63595 10.2609 6.00268 9.32431 6.67499 8.61124C6.36928 7.7699 6.40505 6.84658 6.77499 6.03007C6.77499 6.03007 7.61246 5.77438 9.52497 7.02845C11.1613 6.59011 12.8887 6.59011 14.5249 7.02845C16.4374 5.76221 17.2749 6.03007 17.2749 6.03007C17.6449 6.84657 17.6807 7.7699 17.3749 8.61124C18.0493 9.32308 18.4163 10.2605 18.3999 11.2289C18.3999 14.9667 16.0624 15.7947 13.8374 16.0382C14.0761 16.2738 14.2599 16.5567 14.3764 16.8676C14.4928 17.1785 14.5392 17.5102 14.5124 17.8402C14.5124 19.1429 14.4999 20.19 14.4999 20.5187C14.4999 20.7744 14.6874 21.0788 15.1874 20.9814C17.4361 20.2439 19.3425 18.7521 20.5663 16.7722C21.7901 14.7922 22.2518 12.4531 21.8688 10.1723C21.4858 7.89155 20.2831 5.81758 18.4754 4.32063C16.6677 2.82369 14.3726 2.0012 12 2Z" fill="black"/>
</g>
</svg>
