<svg viewBox="0 0 64 65" fill="none" xmlns="http://www.w3.org/2000/svg">
<g opacity="0.6">
<path d="M32 59.5C46.9117 59.5 59 47.4117 59 32.5C59 17.5883 46.9117 5.5 32 5.5C17.0883 5.5 5 17.5883 5 32.5C5 47.4117 17.0883 59.5 32 59.5Z" stroke="#D8DBE0" stroke-width="4" stroke-linecap="round" stroke-linejoin="round"/>
<path d="M21.2002 37.9001C21.2002 37.9001 25.2502 43.3001 32.0002 43.3001C38.7502 43.3001 42.8002 37.9001 42.8002 37.9001" stroke="#D8DBE0" stroke-width="4" stroke-linecap="round" stroke-linejoin="round"/>
<path fill-rule="evenodd" clip-rule="evenodd" d="M21.2002 24.4C21.2002 22.9088 22.409 21.7 23.9002 21.7H23.9272C25.4184 21.7 26.6272 22.9088 26.6272 24.4C26.6272 25.8911 25.4184 27.0999 23.9272 27.0999H23.9002C22.409 27.0999 21.2002 25.8911 21.2002 24.4Z" fill="#D8DBE0"/>
<path fill-rule="evenodd" clip-rule="evenodd" d="M37.3999 24.4C37.3999 22.9088 38.6087 21.7 40.0999 21.7H40.1269C41.6181 21.7 42.8269 22.9088 42.8269 24.4C42.8269 25.8911 41.6181 27.0999 40.1269 27.0999H40.0999C38.6087 27.0999 37.3999 25.8911 37.3999 24.4Z" fill="#D8DBE0"/>
</g>
</svg>
