<svg viewBox="0 0 24 24" fill="none" xmlns="http://www.w3.org/2000/svg">
<path d="M3 14V8.8C3 6.73131 3.94821 4.74735 5.63604 3.28457C7.32387 1.82178 9.61305 1 12 1C14.3869 1 16.6761 1.82178 18.364 3.28457C20.0518 4.74735 21 6.73131 21 8.8V14" stroke="currentColor" stroke-width="1.8" stroke-linecap="round" stroke-linejoin="round"/>
<path d="M13 22C14.5913 22 16.1174 21.6207 17.2426 20.9456C18.3679 20.2705 19 19.3548 19 18.4V16" stroke="currentColor" stroke-width="1.8" stroke-linecap="round" stroke-linejoin="round"/>
<path d="M21 14.2857C21 14.7404 20.7893 15.1764 20.4142 15.4979C20.0391 15.8194 19.5304 16 19 16H18C17.4696 16 16.9609 15.8194 16.5858 15.4979C16.2107 15.1764 16 14.7404 16 14.2857V11.7143C16 11.2596 16.2107 10.8236 16.5858 10.5021C16.9609 10.1806 17.4696 10 18 10H21V14.2857ZM3 14.2857C3 14.7404 3.21071 15.1764 3.58579 15.4979C3.96086 15.8194 4.46957 16 5 16H6C6.53043 16 7.03914 15.8194 7.41421 15.4979C7.78929 15.1764 8 14.7404 8 14.2857V11.7143C8 11.2596 7.78929 10.8236 7.41421 10.5021C7.03914 10.1806 6.53043 10 6 10H3V14.2857Z" stroke="currentColor" stroke-width="1.8" stroke-linecap="round" stroke-linejoin="round"/>
<rect x="9" y="20" width="6" height="4" rx="2" fill="currentColor"/>
</svg>
