<svg width="30" height="30" viewBox="0 0 40 40" fill="none" xmlns="http://www.w3.org/2000/svg">
<path d="M34.3783 7.65222C33.5475 6.81139 32.5611 6.14438 31.4755 5.6893C30.3898 5.23423 29.2262 5 28.051 5C26.8758 5 25.7122 5.23423 24.6265 5.6893C23.5409 6.14438 22.5545 6.81139 21.7237 7.65222L19.9996 9.39642L18.2754 7.65222C16.5973 5.95459 14.3213 5.00088 11.9481 5.00088C9.57494 5.00088 7.29895 5.95459 5.62085 7.65222C3.94275 9.34984 3 11.6523 3 14.0531C3 16.4539 3.94275 18.7564 5.62085 20.454L7.34499 22.1982L19.9996 35L32.6541 22.1982L34.3783 20.454C35.2094 19.6136 35.8688 18.6157 36.3186 17.5174C36.7685 16.4191 37 15.2419 37 14.0531C37 12.8643 36.7685 11.6871 36.3186 10.5888C35.8688 9.49052 35.2094 8.49265 34.3783 7.65222V7.65222Z" stroke="#F2F4F7" stroke-width="2.8" stroke-linecap="round" stroke-linejoin="round"/>
</svg>
