<svg width="36" height="36" viewBox="0 0 40 40" fill="none" xmlns="http://www.w3.org/2000/svg">
<path d="M20 37.5C29.3888 37.5 37 29.8888 37 20.5C37 11.1112 29.3888 3.5 20 3.5C10.6112 3.5 3 11.1112 3 20.5C3 29.8888 10.6112 37.5 20 37.5Z" stroke="currentColor" stroke-width="2.8" stroke-linecap="round" stroke-linejoin="round"/>
<path d="M14.7622 15.0993C15.1854 13.8963 16.0207 12.8819 17.1201 12.2357C18.2196 11.5896 19.5122 11.3534 20.7691 11.5689C22.026 11.7845 23.1661 12.438 23.9873 13.4136C24.8086 14.3892 25.2581 15.624 25.2562 16.8993C25.2562 20.4993 19.8562 22.2993 19.8562 22.2993" stroke="currentColor" stroke-width="2.8" stroke-linecap="round" stroke-linejoin="round"/>
<path d="M20 29.4995H20.0189" stroke="currentColor" stroke-width="2.8" stroke-linecap="round" stroke-linejoin="round"/>
</svg>
