<svg width="24" height="24" viewBox="0 0 24 24" fill="none" xmlns="http://www.w3.org/2000/svg">
<path fill-rule="currentColor" clip-rule="currentColor" d="M11.5433 2.15709C11.8137 1.94756 12.1914 1.94765 12.4616 2.15729L21.4083 8.89862C21.4282 8.91405 21.4473 8.93047 21.4656 8.94782C21.7857 9.25246 21.9747 9.66885 21.9989 10.1077C21.9996 10.1215 22 10.1352 22 10.149V20.446L22 20.4489C21.9984 20.8536 21.8414 21.2451 21.5571 21.5372C21.2722 21.8299 20.8819 21.9987 20.4701 22L20.4677 22H14.9965C14.5826 22 14.247 21.6642 14.247 21.25V16.9339C14.247 16.3087 14.0052 15.713 13.5812 15.277C13.1578 14.8417 12.588 14.601 11.9984 14.601C11.4087 14.601 10.8389 14.8417 10.4155 15.277C9.99148 15.713 9.74975 16.3087 9.74975 16.9339V21.2475C9.74975 21.6617 9.41417 21.9975 9.00021 21.9975H3.53145L3.5291 21.9975C3.11727 21.9962 2.72691 21.8273 2.44208 21.5344C2.15791 21.2422 2.00121 20.8504 2 20.4457L2 20.4435V10.149C2 10.1356 2.00036 10.1221 2.00108 10.1087C2.02473 9.66907 2.21404 9.25185 2.53519 8.94711C2.55329 8.92994 2.57222 8.91369 2.59193 8.89841L11.5433 2.15709ZM3.55049 10.0528C3.52333 10.0853 3.50429 10.1279 3.49907 10.176V20.4418C3.49927 20.4629 3.50767 20.4793 3.51643 20.4883C3.52064 20.4926 3.52447 20.4949 3.52723 20.496C3.52981 20.4972 3.53352 20.4975 3.53352 20.4975H8.25068V16.9339C8.25068 15.9239 8.6407 14.9512 9.34118 14.2309C10.0423 13.5099 10.9977 13.101 11.9984 13.101C12.999 13.101 13.9544 13.5099 14.6555 14.2309C15.356 14.9512 15.746 15.9239 15.746 16.9339V20.5H20.4657L20.4683 20.4997L20.4723 20.4985C20.4751 20.4972 20.479 20.4949 20.4833 20.4905C20.4922 20.4814 20.5007 20.4649 20.5009 20.4437V10.1766C20.4956 10.1282 20.4764 10.0852 20.449 10.0524L12.0021 3.69887L3.55049 10.0528Z" fill="currentColor"/>
</svg>
