<svg width="25" height="24" viewBox="0 0 25 24" fill="none" xmlns="http://www.w3.org/2000/svg">
<path fill-rule="evenodd" clip-rule="evenodd" d="M12.0433 2.15709C12.3137 1.94756 12.6914 1.94765 12.9616 2.15729L21.9083 8.89862C21.9282 8.91405 21.9473 8.93047 21.9656 8.94782C22.2857 9.25246 22.4747 9.66885 22.4989 10.1077C22.4996 10.1215 22.5 10.1352 22.5 10.149V20.446L22.5 20.4489C22.4984 20.8536 22.3414 21.2451 22.0571 21.5372C21.7722 21.8299 21.3819 21.9987 20.9701 22L20.9677 22H15.4965C15.0826 22 14.747 21.6642 14.747 21.25V16.9339C14.747 16.3087 14.5052 15.713 14.0812 15.277C13.6578 14.8417 13.088 14.601 12.4984 14.601C11.9087 14.601 11.3389 14.8417 10.9155 15.277C10.4915 15.713 10.2498 16.3087 10.2498 16.9339V21.2475C10.2498 21.6617 9.91417 21.9975 9.50021 21.9975H4.03145L4.0291 21.9975C3.61727 21.9962 3.22691 21.8273 2.94208 21.5344C2.65791 21.2422 2.50121 20.8504 2.5 20.4457L2.5 20.4435V10.149C2.5 10.1356 2.50036 10.1221 2.50108 10.1087C2.52473 9.66907 2.71404 9.25185 3.03519 8.94711C3.05329 8.92994 3.07222 8.91369 3.09193 8.89841L12.0433 2.15709ZM4.05049 10.0528C4.02333 10.0853 4.00429 10.1279 3.99907 10.176V20.4418C3.99927 20.4629 4.00767 20.4793 4.01643 20.4883C4.02064 20.4926 4.02447 20.4949 4.02723 20.496C4.02981 20.4972 4.03352 20.4975 4.03352 20.4975H8.75068V16.9339C8.75068 15.9239 9.1407 14.9512 9.84118 14.2309C10.5423 13.5099 11.4977 13.101 12.4984 13.101C13.499 13.101 14.4544 13.5099 15.1555 14.2309C15.856 14.9512 16.246 15.9239 16.246 16.9339V20.5H20.9657L20.9683 20.4997L20.9723 20.4985C20.9751 20.4972 20.979 20.4949 20.9833 20.4905C20.9922 20.4814 21.0007 20.4649 21.0009 20.4437V10.1766C20.9956 10.1282 20.9764 10.0852 20.949 10.0524L12.5021 3.69887L4.05049 10.0528Z" fill="currentColor"/>
<path fill-rule="evenodd" clip-rule="evenodd" d="M12.0433 2.15709C12.3137 1.94756 12.6914 1.94765 12.9616 2.15729L21.9083 8.89862C21.9282 8.91405 21.9473 8.93047 21.9656 8.94782C22.2857 9.25246 22.4747 9.66885 22.4989 10.1077C22.4996 10.1215 22.5 10.1352 22.5 10.149V20.446L22.5 20.4489C22.4984 20.8536 22.3414 21.2451 22.0571 21.5372C21.7722 21.8299 21.3819 21.9987 20.9701 22L20.9677 22H15.4965C15.0826 22 14.747 21.6642 14.747 21.25V16.9339C14.747 16.3087 14.5052 15.713 14.0812 15.277C13.6578 14.8417 13.088 14.601 12.4984 14.601C11.9087 14.601 11.3389 14.8417 10.9155 15.277C10.4915 15.713 10.2498 16.3087 10.2498 16.9339V21.2475C10.2498 21.6617 9.91417 21.9975 9.50021 21.9975H4.03145L4.0291 21.9975C3.61727 21.9962 3.22691 21.8273 2.94208 21.5344C2.65791 21.2422 2.50121 20.8504 2.5 20.4457L2.5 20.4435V10.149C2.5 10.1356 2.50036 10.1221 2.50108 10.1087C2.52473 9.66907 2.71404 9.25185 3.03519 8.94711C3.05329 8.92994 3.07222 8.91369 3.09193 8.89841L12.0433 2.15709Z" fill="#D818A5"/>
</svg>
