<svg width="25" height="24" viewBox="0 0 25 24" fill="none" xmlns="http://www.w3.org/2000/svg">
<path fill-rule="evenodd" clip-rule="evenodd" d="M9.5 12C9.5 10.3462 10.8462 9 12.5 9C14.1538 9 15.5 10.3462 15.5 12C15.5 13.6538 14.1538 15 12.5 15C10.8462 15 9.5 13.6538 9.5 12ZM12.5 10.5464C11.7002 10.5464 11.0464 11.2002 11.0464 12C11.0464 12.7998 11.7002 13.4536 12.5 13.4536C13.2998 13.4536 13.9536 12.7998 13.9536 12C13.9536 11.2002 13.2998 10.5464 12.5 10.5464Z" fill="currentColor"/>
<path fill-rule="evenodd" clip-rule="evenodd" d="M16.5 12C16.5 10.3462 17.8462 9 19.5 9C21.1538 9 22.5 10.3462 22.5 12C22.5 13.6538 21.1538 15 19.5 15C17.8462 15 16.5 13.6538 16.5 12ZM19.5 10.5464C18.7002 10.5464 18.0464 11.2002 18.0464 12C18.0464 12.7998 18.7002 13.4536 19.5 13.4536C20.2998 13.4536 20.9536 12.7998 20.9536 12C20.9536 11.2002 20.2998 10.5464 19.5 10.5464Z" fill="currentColor"/>
<path fill-rule="evenodd" clip-rule="evenodd" d="M2.5 12C2.5 10.3462 3.84617 9 5.5 9C7.15383 9 8.5 10.3462 8.5 12C8.5 13.6538 7.15383 15 5.5 15C3.84617 15 2.5 13.6538 2.5 12ZM5.5 10.5464C4.70022 10.5464 4.04639 11.2002 4.04639 12C4.04639 12.7998 4.70022 13.4536 5.5 13.4536C6.29978 13.4536 6.95361 12.7998 6.95361 12C6.95361 11.2002 6.29978 10.5464 5.5 10.5464Z" fill="currentColor"/>
</svg>
