<svg width="12" height="12" viewBox="0 0 12 12" fill="none" xmlns="http://www.w3.org/2000/svg">
<path d="M11.1127 8.38973e-05H0.887324C0.772381 -0.00150285 0.65825 0.0194321 0.551448 0.0616933C0.444646 0.103954 0.347266 0.166714 0.264868 0.246388C0.18247 0.326061 0.116669 0.421089 0.0712225 0.526042C0.0257761 0.630996 0.00157448 0.74382 0 0.858072V11.1419C0.00157448 11.2562 0.0257761 11.369 0.0712225 11.474C0.116669 11.5789 0.18247 11.6739 0.264868 11.7536C0.347266 11.8333 0.444646 11.896 0.551448 11.9383C0.65825 11.9806 0.772381 12.0015 0.887324 11.9999H11.1127C11.2276 12.0015 11.3418 11.9806 11.4486 11.9383C11.5554 11.896 11.6527 11.8333 11.7351 11.7536C11.8175 11.6739 11.8833 11.5789 11.9288 11.474C11.9742 11.369 11.9984 11.2562 12 11.1419V0.858072C11.9984 0.74382 11.9742 0.630996 11.9288 0.526042C11.8833 0.421089 11.8175 0.326061 11.7351 0.246388C11.6527 0.166714 11.5554 0.103954 11.4486 0.0616933C11.3418 0.0194321 11.2276 -0.00150285 11.1127 8.38973e-05ZM3.63984 10.0439H1.82897V4.64402H3.63984V10.0439ZM2.73441 3.88803C2.48467 3.88803 2.24515 3.78942 2.06856 3.61388C1.89197 3.43835 1.79276 3.20028 1.79276 2.95204C1.79276 2.7038 1.89197 2.46573 2.06856 2.2902C2.24515 2.11467 2.48467 2.01606 2.73441 2.01606C2.86702 2.00111 3.00131 2.01417 3.1285 2.05438C3.25568 2.0946 3.37288 2.16107 3.47243 2.24943C3.57198 2.33779 3.65163 2.44606 3.70616 2.56714C3.76069 2.68822 3.78888 2.81938 3.78888 2.95204C3.78888 3.0847 3.76069 3.21587 3.70616 3.33695C3.65163 3.45803 3.57198 3.56629 3.47243 3.65466C3.37288 3.74302 3.25568 3.80948 3.1285 3.8497C3.00131 3.88992 2.86702 3.90298 2.73441 3.88803ZM10.171 10.0439H8.36016V7.14598C8.36016 6.41999 8.1006 5.946 7.44266 5.946C7.23903 5.94748 7.04076 6.01097 6.87455 6.1279C6.70834 6.24483 6.58218 6.4096 6.51308 6.59999C6.46584 6.74101 6.44537 6.88953 6.45272 7.03798V10.0379H4.64185C4.64185 10.0379 4.64185 5.13001 4.64185 4.63802H6.45272V5.40001C6.61722 5.11628 6.85648 4.88253 7.14473 4.72394C7.43298 4.56535 7.7593 4.48793 8.08853 4.50002C9.29577 4.50002 10.171 5.27401 10.171 6.93599V10.0439Z" fill="#E5007B"/>
</svg>

