<svg width="24" height="24" viewBox="0 0 24 24" fill="none" xmlns="http://www.w3.org/2000/svg">
<path d="M10.5607 13.0041C10.8454 13.432 11.2328 13.7683 11.6965 13.9901C12.1603 14.212 12.6896 14.3143 13.2485 14.2901C13.8074 14.2658 14.3829 14.1156 14.936 13.8496C15.489 13.5837 16.0066 13.2081 16.4537 12.7485L19.0999 10.0291C19.9063 9.17732 20.422 8.10245 20.5359 7.03605C20.6498 5.96964 20.3529 4.99703 19.7091 4.32768C19.0652 3.65833 18.126 3.34581 17.0936 3.45742C16.0613 3.56904 15.0184 4.09586 14.1897 4.92442L12.6735 6.47537" stroke="#3A3B40" stroke-width="1.8" stroke-linecap="round" stroke-linejoin="round"/>
<path d="M13.4397 10.9961C13.1551 10.5683 12.7677 10.232 12.3039 10.0101C11.8402 9.78821 11.3109 9.68592 10.752 9.71016C10.1931 9.7344 9.61755 9.88461 9.06452 10.1506C8.51149 10.4166 7.99387 10.7921 7.54675 11.2517L4.90061 13.9711C4.09423 14.8229 3.57853 15.8978 3.46458 16.9642C3.35064 18.0306 3.64756 19.0032 4.2914 19.6725C4.93524 20.3419 5.87449 20.6544 6.90685 20.5428C7.9392 20.4312 8.98206 19.9044 9.81082 19.0758L11.3191 17.5258" stroke="#3A3B40" stroke-width="1.8" stroke-linecap="round" stroke-linejoin="round"/>
</svg>
