<svg width="10" height="14" viewBox="0 0 10 14" fill="none" xmlns="http://www.w3.org/2000/svg">
<rect x="1.25" y="6.05762" width="8" height="6.35898" rx="0.5" stroke="white" stroke-width="1.2"/>
<path d="M5.22996 8.67355L5.06186 8.53768C5.01588 8.50051 5.00635 8.46296 5.00635 8.44374C5.00635 8.42038 5.01583 8.38827 5.05285 8.35495C5.09069 8.32089 5.15198 8.29248 5.22997 8.29248C5.30795 8.29248 5.36924 8.32089 5.40708 8.35495C5.4441 8.38827 5.45358 8.42038 5.45358 8.44374C5.45358 8.46296 5.44405 8.50051 5.39807 8.53768L5.22996 8.67355Z" fill="white" stroke="white"/>
<path d="M7.9481 6.09434V3.54717C7.9481 2.14041 6.80769 1 5.40093 1V1C3.99417 1 2.85376 2.14041 2.85376 3.54717V6.09434" stroke="white" stroke-width="1.2"/>
</svg>
