<svg width="40" height="40" viewBox="0 0 40 40" fill="none" xmlns="http://www.w3.org/2000/svg">
<g id="Type=lock, Size=md">
<g id="Group 1604">
<rect id="Rectangle 530" x="9" y="16.9083" width="22" height="17.4872" rx="2" stroke="currentColor" stroke-width="2.8"/>
<path id="Vector" d="M19.9448 30.634C19.2125 30.634 18.6181 30.0991 18.6181 29.4401V24.7979C18.2016 24.4612 17.9548 23.9788 17.9548 23.4702C17.9548 22.4816 18.8463 21.6793 19.9448 21.6793C21.0432 21.6793 21.9347 22.4816 21.9347 23.4702C21.9347 23.9788 21.6879 24.4612 21.2714 24.7979V29.4401C21.2714 30.0991 20.6771 30.634 19.9448 30.634Z" fill="currentColor"/>
<path id="Rectangle 531" d="M27.4198 17.0094V10.0047C27.4198 6.13612 24.2837 3 20.4151 3V3C16.5465 3 13.4104 6.13612 13.4104 10.0047V17.0094" stroke="currentColor" stroke-width="2.8"/>
</g>
</g>
</svg>
