<svg width="64" height="64" viewBox="0 0 64 64" fill="none" xmlns="http://www.w3.org/2000/svg">
<g id="Type=lock, Size=lg">
<g id="Group 1604">
<rect id="Rectangle 530" x="16" y="28.2302" width="32" height="25.4359" rx="4" stroke="currentColor" stroke-width="4"/>
<path id="Vector" d="M31.9196 48.1949C30.8545 48.1949 29.99 47.4169 29.99 46.4582V39.706C29.3841 39.2163 29.0251 38.5147 29.0251 37.7748C29.0251 36.3369 30.3219 35.1698 31.9196 35.1698C33.5174 35.1698 34.8141 36.3369 34.8141 37.7748C34.8141 38.5147 34.4552 39.2163 33.8493 39.706V46.4582C33.8493 47.4169 32.9848 48.1949 31.9196 48.1949Z" fill="currentColor"/>
<path id="Rectangle 531" d="M42.7925 28.3774V18.1887C42.7925 12.5616 38.2308 8 32.6038 8V8C26.9767 8 22.4151 12.5616 22.4151 18.1887V28.3774" stroke="currentColor" stroke-width="4"/>
</g>
</g>
</svg>
