<svg width="24" height="24" viewBox="0 0 24 24" fill="none"
  xmlns="http://www.w3.org/2000/svg">
  <path fill-rule="evenodd" clip-rule="evenodd" d="M12 2.81651C6.9281 2.81651 2.81651 6.9281 2.81651 12C2.81651 17.0719 6.9281 21.1835 12 21.1835C17.0719 21.1835 21.1835 17.0719 21.1835 12C21.1835 6.9281 17.0719 2.81651 12 2.81651ZM1 12C1 5.92487 5.92487 1 12 1C18.0751 1 23 5.92487 23 12C23 18.0751 18.0751 23 12 23C5.92487 23 1 18.0751 1 12Z" fill="currentColor"/>
  <rect x="8" y="11.0576" width="8" height="6.35898" rx="0.5" stroke="currentColor" stroke-width="1.2"/>
  <path d="M11.9795 16.0488C11.7132 16.0488 11.4971 15.8543 11.4971 15.6146V13.9265C11.3456 13.8041 11.2559 13.6287 11.2559 13.4437C11.2559 13.0842 11.58 12.7925 11.9795 12.7925C12.3789 12.7925 12.7031 13.0842 12.7031 13.4437C12.7031 13.6287 12.6134 13.8041 12.4619 13.9265V15.6146C12.4619 15.8543 12.2458 16.0488 11.9795 16.0488Z" fill="currentColor"/>
  <path d="M14.6979 11.0943V8.54717C14.6979 7.14041 13.5574 6 12.1507 6V6C10.7439 6 9.60352 7.14041 9.60352 8.54717V11.0943" stroke="currentColor" stroke-width="1.2"/>
</svg>
