<svg width="25" height="24" viewBox="0 0 25 24" fill="none" xmlns="http://www.w3.org/2000/svg">
<circle cx="12.5" cy="12" r="10" stroke="currentColor" stroke-width="1.8"/>
<rect x="8.5" y="11.0576" width="8" height="6.35898" rx="0.5" stroke="currentColor" stroke-width="1.2"/>
<path d="M12.4799 16.0487C12.2136 16.0487 11.9975 15.8542 11.9975 15.6145V13.9265C11.846 13.804 11.7563 13.6286 11.7563 13.4437C11.7563 13.0842 12.0805 12.7924 12.4799 12.7924C12.8793 12.7924 13.2035 13.0842 13.2035 13.4437C13.2035 13.6286 13.1138 13.804 12.9623 13.9265V15.6145C12.9623 15.8542 12.7462 16.0487 12.4799 16.0487Z" fill="currentColor"/>
<path d="M15.1981 11.0943V8.54717C15.1981 7.14041 14.0576 6 12.6509 6V6C11.2441 6 10.1037 7.14041 10.1037 8.54717V11.0943" stroke="currentColor" stroke-width="1.2"/>
</svg>
