<svg width="24" height="24" viewBox="0 0 24 24" fill="none" xmlns="http://www.w3.org/2000/svg">
<g id="Type=lock, Size=sm">
<g id="Group 1604">
<rect id="Rectangle 530" x="5" y="9.85083" width="14" height="11.1282" rx="1" stroke="currentColor" stroke-width="1.8"/>
<path id="Vector" d="M11.9648 18.5854C11.4988 18.5854 11.1206 18.245 11.1206 17.8256V14.8715C10.8555 14.6572 10.6985 14.3503 10.6985 14.0266C10.6985 13.3975 11.2658 12.8869 11.9648 12.8869C12.6639 12.8869 13.2312 13.3975 13.2312 14.0266C13.2312 14.3503 13.0742 14.6572 12.8091 14.8715V17.8256C12.8091 18.245 12.4309 18.5854 11.9648 18.5854Z" fill="currentColor"/>
<path id="Rectangle 531" d="M16.7217 9.91509V5.45755C16.7217 2.99571 14.726 1 12.2642 1V1C9.80232 1 7.80661 2.99571 7.80661 5.45755V9.91509" stroke="currentColor" stroke-width="1.8"/>
</g>
</g>
</svg>
