<svg width="25" height="24" viewBox="0 0 25 24" fill="none" xmlns="http://www.w3.org/2000/svg">
<path d="M6.36826 21C5.26826 20.9518 4.44826 20.0753 4.49826 19.0543V4.9072C4.44826 3.9247 5.27826 3.04816 6.33826 3H14.6219C15.7219 3.04816 16.5419 3.9247 16.4919 4.94573V8.48079C16.4919 8.87571 16.1619 9.20321 15.7419 9.20321C15.3219 9.20321 14.9919 8.87571 14.9919 8.48079V4.9072C15.0019 4.64713 14.8219 4.45448 14.5819 4.44485H6.36826C6.16826 4.45448 5.98826 4.64713 5.99826 4.8783V19.0832C5.98826 19.3432 6.16826 19.5359 6.40826 19.5455H14.6219C14.8219 19.5359 15.0019 19.3432 14.9919 19.1121V15.5192C14.9919 15.1243 15.3219 14.7968 15.7419 14.7968C16.1619 14.7968 16.4919 15.1243 16.4919 15.5192V19.0832C16.5419 20.0657 15.7119 20.9422 14.6619 20.9904H6.36826V21Z" fill="currentColor"/>
<path d="M22.2837 11.3994L19.1505 8.23003C18.8473 7.92332 18.342 7.92332 18.0388 8.23003C17.7356 8.53674 17.7356 9.04792 18.0388 9.35463L19.858 11.1949H12.3789C11.9746 11.1949 11.5703 11.5016 11.5703 12.0128C11.5703 12.524 11.8735 12.8307 12.3789 12.8307H19.858L18.0388 14.6709C17.7356 14.9776 17.7356 15.4888 18.0388 15.7955C18.2409 16 18.342 16 18.5441 16C18.7463 16 18.9484 15.8978 19.0495 15.7955L22.1826 12.6262C22.5869 12.115 22.5869 11.7061 22.2837 11.3994Z" fill="currentColor"/>
</svg>
