<svg width="204" height="36" viewBox="0 0 204 24" fill="none" xmlns="http://www.w3.org/2000/svg">
  <path d="M13.1203 7.12207V9.34771H5.78457C3.72629 9.34771 2.67935 10.416 2.67935 12.5776V17.563C2.67935 19.7281 3.72629 20.8249 5.78457 20.8249H13.1203V23.0185H5.36793C2.11315 23.0434 0.5 21.3377 0.5 17.9547V12.225C0.5 8.84205 2.11315 7.12207 5.36793 7.12207H13.1203Z" fill="white"/>
  <path d="M18.5719 7.16479V17.5879C18.5719 19.753 19.6153 20.8498 21.6487 20.8498H26.7124C28.7743 20.8498 29.8212 19.753 29.8212 17.5879V7.16479H31.9578V17.9547C31.9578 21.3377 30.3162 23.0434 27.0899 23.0434H21.2605C18.0057 23.0434 16.3926 21.3377 16.3926 17.9547V7.16479H18.5719Z" fill="white"/>
  <path d="M38.5104 0V17.5915C38.5104 19.753 39.5538 20.8498 41.5871 20.8498H46.7115C48.7733 20.8498 49.8167 19.753 49.8167 17.5915V12.606C49.8167 10.4445 48.7733 9.37619 46.7115 9.37619H39.5894V7.13986H47.1495C50.4042 7.13986 52.0138 8.8456 52.0138 12.2286V17.9547C52.0138 21.3377 50.4042 23.0434 47.1495 23.0434H41.199C37.9442 23.0434 36.3311 21.3377 36.3311 17.9547V0H38.5104Z" fill="white"/>
  <path d="M58.189 17.5915C58.189 19.7531 59.2573 20.8499 61.3939 20.8499H66.0233C68.1599 20.8499 69.246 19.7531 69.246 17.5915V12.6061C69.246 10.4445 68.1599 9.37622 66.0233 9.37622H61.3939C59.2573 9.37622 58.189 10.4445 58.189 12.6061V17.5915ZM66.4613 7.13989C69.8086 7.13989 71.5144 8.84563 71.5144 12.2286V17.9547C71.5144 21.3377 69.8086 23.0434 66.4613 23.0434H60.9773C57.6014 23.0434 55.9277 21.3377 55.9277 17.9547V12.2286C55.9277 8.84563 57.6014 7.13989 60.9773 7.13989H66.4613Z" fill="white"/>
  <path d="M88.5356 7.13989V9.05929H78.903C77.5569 9.05929 76.9017 9.69671 76.9017 10.9466V12.1966C76.9017 13.3539 77.4964 13.9343 78.7534 13.9343H85.8185C88.0904 13.9343 89.2228 15.0311 89.2228 17.1927V19.5109C89.2228 21.8576 88.0014 23.0434 85.5514 23.0434H74.9253V21.1241H84.9781C86.4025 21.1241 87.1147 20.5151 87.1147 19.2367V17.4491C87.1147 16.2917 86.5165 15.7113 85.2915 15.7113H78.2157C75.9438 15.7113 74.7793 14.6145 74.7793 12.4494V10.6689C74.7793 8.35064 75.9758 7.16482 78.3653 7.16482L88.5356 7.13989Z" fill="white"/>
  <path d="M101.815 6.92627H104.19L98.5529 23.0186H96.1777L101.815 6.92627Z" fill="#E5007B"/>
  <path d="M106.583 6.92627H108.959L103.321 23.0186H100.946L106.583 6.92627Z" fill="#E5007B"/>
  <path d="M118.865 11.3953C119.628 12.0719 120.012 13.0939 120.012 14.4613V19.6925H117.519V18.5458C117.016 19.4005 116.082 19.8278 114.717 19.8278C114.087 19.8435 113.461 19.722 112.883 19.4717C112.399 19.2614 111.987 18.9165 111.694 18.4782C111.42 18.054 111.277 17.5585 111.284 17.0538C111.269 16.6646 111.349 16.2777 111.517 15.9264C111.685 15.5752 111.936 15.2703 112.249 15.0382C112.892 14.5492 113.886 14.3046 115.23 14.3046H117.348C117.365 14.0556 117.325 13.806 117.234 13.5739C117.142 13.3418 117 13.1329 116.818 12.9621C116.364 12.6158 115.799 12.4485 115.23 12.4921C114.74 12.493 114.253 12.5711 113.787 12.7235C113.352 12.8575 112.945 13.0686 112.584 13.3467L111.626 11.4843C112.175 11.1092 112.784 10.8321 113.428 10.6653C114.132 10.4725 114.859 10.3755 115.589 10.3768C117.011 10.3697 118.103 10.7092 118.865 11.3953ZM116.59 17.7197C116.944 17.5083 117.21 17.1774 117.341 16.7867V15.8466H115.522C114.427 15.8466 113.88 16.2027 113.88 16.9149C113.875 17.0729 113.909 17.2296 113.98 17.3712C114.05 17.5128 114.154 17.635 114.282 17.7268C114.608 17.9417 114.994 18.0454 115.383 18.0224C115.805 18.0328 116.223 17.9282 116.59 17.7197Z" fill="white"/>
  <path d="M123.64 19.2296C122.877 18.8475 122.238 18.257 121.797 17.5266C121.356 16.7961 121.13 15.9556 121.147 15.1024C121.13 14.2495 121.355 13.4092 121.796 12.6792C122.237 11.9492 122.877 11.3595 123.64 10.9787C124.457 10.5651 125.363 10.3573 126.279 10.3733C127.163 10.3519 128.038 10.5605 128.818 10.9787C129.524 11.3621 130.08 11.9734 130.395 12.7129L128.341 13.8168C128.152 13.4308 127.857 13.1065 127.491 12.882C127.124 12.6574 126.701 12.542 126.272 12.5491C125.953 12.5402 125.636 12.5963 125.34 12.7138C125.043 12.8314 124.774 13.0079 124.548 13.2328C124.314 13.4809 124.133 13.7738 124.015 14.094C123.898 14.4141 123.847 14.7547 123.865 15.0953C123.846 15.4358 123.897 15.7766 124.015 16.0968C124.132 16.4169 124.314 16.7098 124.548 16.9577C124.774 17.1832 125.043 17.3603 125.339 17.4779C125.636 17.5954 125.953 17.6511 126.272 17.6414C126.701 17.6522 127.125 17.5391 127.492 17.3155C127.859 17.092 128.153 16.7675 128.341 16.3808L130.406 17.5096C130.08 18.2356 129.526 18.8356 128.829 19.2189C128.05 19.641 127.175 19.8521 126.29 19.8314C125.371 19.8503 124.461 19.6436 123.64 19.2296Z" fill="white"/>
  <path d="M138.579 11.3954C139.351 12.0625 139.737 13.0797 139.737 14.4472V19.6926H137.244V18.5459C136.745 19.4006 135.819 19.8279 134.445 19.8279C133.814 19.844 133.187 19.7225 132.607 19.4718C132.124 19.2615 131.711 18.9166 131.418 18.4782C131.146 18.0534 131.003 17.5584 131.008 17.0538C130.994 16.6648 131.074 16.2782 131.243 15.9271C131.411 15.576 131.661 15.271 131.974 15.0383C132.617 14.5492 133.61 14.3047 134.954 14.3047H137.091C137.104 14.0518 137.061 13.799 136.964 13.5649C136.867 13.3308 136.72 13.1213 136.532 12.9515C136.076 12.6056 135.51 12.4384 134.94 12.4815C134.456 12.4843 133.975 12.5624 133.515 12.7129C133.08 12.8477 132.673 13.0587 132.312 13.3361L131.354 11.4737C131.903 11.0992 132.513 10.8222 133.156 10.6547C133.86 10.4619 134.587 10.3649 135.317 10.3662C136.73 10.3662 137.817 10.7093 138.579 11.3954ZM136.307 17.734C136.661 17.5226 136.928 17.1917 137.059 16.801V15.8466H135.232C134.137 15.8466 133.59 16.2027 133.59 16.915C133.585 17.0729 133.62 17.2297 133.69 17.3713C133.76 17.5129 133.864 17.635 133.993 17.7269C134.319 17.9423 134.706 18.046 135.097 18.0224C135.52 18.0343 135.939 17.9296 136.307 17.7197V17.734Z" fill="white"/>
  <path d="M151.256 7.01514V19.6924H148.71V18.6241C148.053 19.4218 147.096 19.8206 145.84 19.8206C145.021 19.8329 144.212 19.6329 143.493 19.2402C142.796 18.8577 142.224 18.2829 141.845 17.5843C141.434 16.8185 141.228 15.9601 141.246 15.0916C141.228 14.223 141.434 13.3643 141.845 12.5988C142.222 11.8987 142.795 11.3234 143.493 10.943C144.212 10.5502 145.021 10.3502 145.84 10.3625C146.352 10.334 146.864 10.4184 147.34 10.6098C147.815 10.8012 148.243 11.0949 148.593 11.47V7.01514H151.256ZM147.977 16.9504C148.204 16.7002 148.38 16.4074 148.493 16.089C148.607 15.7706 148.657 15.4328 148.639 15.0951C148.656 14.7577 148.606 14.4203 148.492 14.1024C148.378 13.7845 148.201 13.4925 147.973 13.2434C147.526 12.7987 146.921 12.549 146.29 12.549C145.66 12.549 145.055 12.7987 144.608 13.2434C144.38 13.4925 144.203 13.7845 144.089 14.1024C143.975 14.4203 143.925 14.7577 143.942 15.0951C143.925 15.433 143.975 15.771 144.089 16.0894C144.204 16.4079 144.38 16.7005 144.608 16.9504C145.056 17.3934 145.66 17.6418 146.29 17.6418C146.92 17.6418 147.525 17.3934 147.973 16.9504H147.977Z" fill="white"/>
  <path d="M161.986 15.8466H155.049C155.157 16.3957 155.477 16.8803 155.939 17.1962C156.452 17.5419 157.062 17.7164 157.68 17.6948C158.114 17.7023 158.544 17.6298 158.951 17.4811C159.338 17.3267 159.691 17.0967 159.988 16.8045L161.412 18.3429C160.546 19.3328 159.281 19.8278 157.62 19.8278C156.667 19.8478 155.723 19.6403 154.867 19.2224C154.105 18.8474 153.465 18.2632 153.022 17.5381C152.6 16.7951 152.378 15.9552 152.378 15.1005C152.378 14.2459 152.6 13.406 153.022 12.663C153.44 11.9468 154.049 11.3611 154.782 10.9715C155.546 10.578 156.392 10.3706 157.252 10.3663C158.111 10.3619 158.96 10.5608 159.728 10.9466C160.448 11.3238 161.044 11.9013 161.444 12.6096C161.872 13.3797 162.087 14.25 162.067 15.1308C162.035 15.1664 162.018 15.405 161.986 15.8466ZM155.761 12.8945C155.342 13.2489 155.074 13.7491 155.009 14.294H159.536C159.466 13.753 159.198 13.257 158.784 12.9016C158.364 12.5501 157.829 12.365 157.281 12.3817C156.729 12.362 156.188 12.5443 155.761 12.8945Z" fill="white"/>
  <path d="M177.985 11.3952C178.662 12.0718 179 13.0903 179 14.4435V19.6924H176.337V14.8388C176.381 14.259 176.221 13.6821 175.884 13.2078C175.724 13.0258 175.524 12.8828 175.3 12.7896C175.076 12.6964 174.834 12.6555 174.592 12.6701C174.315 12.6568 174.039 12.704 173.782 12.8086C173.526 12.9132 173.295 13.0725 173.107 13.2755C172.707 13.7888 172.512 14.432 172.558 15.0809V19.6924H169.895V14.8388C169.895 13.393 169.314 12.6701 168.153 12.6701C167.879 12.6579 167.605 12.7057 167.351 12.8103C167.097 12.9149 166.869 13.0736 166.683 13.2755C166.284 13.7893 166.09 14.4324 166.138 15.0809V19.6924H163.471V10.5014H166.017V11.5697C166.361 11.1806 166.792 10.877 167.274 10.683C167.792 10.4731 168.346 10.369 168.905 10.3768C169.513 10.3667 170.115 10.4971 170.664 10.7578C171.18 11.0084 171.618 11.3966 171.928 11.8795C172.304 11.3978 172.794 11.0162 173.353 10.7685C173.947 10.5025 174.592 10.3688 175.243 10.3768C175.746 10.3521 176.248 10.4297 176.719 10.6047C177.19 10.7798 177.621 11.0487 177.985 11.3952Z" fill="white"/>
  <path d="M190.003 10.5015L185.851 20.2551C185.427 21.3234 184.907 22.0606 184.288 22.495C183.625 22.9405 182.839 23.1683 182.041 23.1467C181.557 23.1463 181.077 23.0718 180.616 22.9259C180.196 22.8011 179.806 22.5915 179.47 22.3098L180.445 20.4118C180.654 20.5976 180.896 20.7426 181.158 20.8391C181.41 20.9403 181.68 20.9935 181.952 20.9958C182.269 21.01 182.582 20.9158 182.838 20.7287C183.112 20.4901 183.324 20.1882 183.455 19.8492L183.49 19.7637L179.509 10.505H182.258L184.843 16.7368L187.454 10.5015H190.003Z" fill="white"/>
  <path d="M196.357 6.92627H198.732L193.095 23.0186H190.72L196.357 6.92627Z" fill="#E5007B"/>
  <path d="M201.124 6.92627H203.5L197.859 23.0186H195.487L201.124 6.92627Z" fill="#E5007B"/>
</svg>
