<svg width="36" height="36" viewBox="0 0 36 36" fill="none" xmlns="http://www.w3.org/2000/svg">
  <path d="M26.9992 0H9.00078C4.02806 0 0 4.02987 0 9.00076V26.9992C0 31.9701 4.02806 36 9.00078 36H26.9992C31.9875 36 36 31.9701 36 26.9992V9.00076C36 4.02987 31.9719 0 26.9992 0ZM26.9992 2.65501C27.8421 2.6622 28.6752 2.83207 29.4511 3.15491C30.2269 3.47775 30.9303 3.94723 31.5209 4.53653C32.1115 5.12584 32.5779 5.82341 32.8933 6.58941C33.2088 7.35539 33.3671 8.17479 33.3593 9.00076V26.9992C33.3671 27.8252 33.2088 28.6446 32.8933 29.4106C32.5779 30.1766 32.1115 30.8742 31.5209 31.4635C30.9303 32.0528 30.2269 32.5223 29.4511 32.8451C28.6752 33.1679 27.8421 33.3378 26.9992 33.345H9.00078C7.3007 33.3273 5.67731 32.649 4.48715 31.4592C3.29698 30.2694 2.63736 28.6653 2.65316 26.9992V9.00076C2.63736 7.33471 3.29698 5.73063 4.48715 4.54082C5.67731 3.35101 7.3007 2.67275 9.00078 2.65501H26.9992Z" fill="white"/>
  <path d="M16.9259 6.73999H20.3179L12.268 29.2602H8.87598L16.9259 6.73999Z" fill="#E5007B"/>
  <path d="M23.7346 6.73999H27.1236L19.0737 29.2602H15.6816L23.7346 6.73999Z" fill="#E5007B"/>
</svg>
