<svg width="102" height="24" viewBox="0 0 102 24" fill="none" xmlns="http://www.w3.org/2000/svg">
<path d="M17.9253 0H6.16542C5.38531 0.00789165 4.6144 0.16937 3.8967 0.475215C3.179 0.78106 2.52857 1.22528 1.98256 1.78251C1.43654 2.33974 1.00564 2.99906 0.714452 3.72284C0.423264 4.44661 0.277494 5.22065 0.285466 6.00076V17.9992C0.270168 19.5745 0.880898 21.0914 1.98345 22.2166C3.086 23.3418 4.59017 23.9833 6.16542 24H17.9253C19.5006 23.9833 21.0048 23.3418 22.1073 22.2166C23.2099 21.0914 23.8206 19.5745 23.8053 17.9992V6.00076C23.8133 5.22065 23.6675 4.44661 23.3763 3.72284C23.0851 2.99906 22.6542 2.33974 22.1082 1.78251C21.5622 1.22528 20.9118 0.78106 20.1941 0.475215C19.4764 0.16937 18.7054 0.00789165 17.9253 0V0ZM17.9253 1.76972C19.035 1.78247 20.0943 2.23471 20.871 3.02728C21.6477 3.81985 22.0784 4.88807 22.0688 5.99774V17.9992C22.0784 19.1089 21.6477 20.1771 20.871 20.9697C20.0943 21.7623 19.035 22.2145 17.9253 22.2273H6.16542C5.05551 22.2145 3.9959 21.7624 3.2187 20.9699C2.44151 20.1774 2.01009 19.1092 2.01895 17.9992V6.00076C2.01009 4.89081 2.44151 3.82259 3.2187 3.03011C3.9959 2.23763 5.05551 1.7855 6.16542 1.77274L17.9253 1.76972Z" fill="#19272E"/>
<path d="M35.0698 8.75797C35.7825 9.38815 36.1389 10.3415 36.1389 11.6179V16.5103H33.8074V15.4322C33.3383 16.2375 32.4676 16.6352 31.1951 16.6251C30.6081 16.6444 30.0239 16.5362 29.4828 16.308C29.0289 16.1097 28.6426 15.7833 28.3714 15.3688C28.1145 14.9692 27.9811 14.5028 27.9879 14.0279C27.9743 13.6642 28.0497 13.3027 28.2076 12.9748C28.3655 12.6469 28.6011 12.3626 28.8939 12.1464C29.4979 11.6894 30.425 11.4619 31.6753 11.4639H33.6534C33.6678 11.2315 33.6309 10.9987 33.5453 10.7821C33.4597 10.5655 33.3275 10.3704 33.1581 10.2106C32.7336 9.88916 32.2064 9.73348 31.6753 9.7727C31.2179 9.77333 30.7634 9.84569 30.3284 9.98712C29.9224 10.1134 29.542 10.3107 29.2049 10.57L28.2989 8.83347C28.8103 8.48292 29.3783 8.22341 29.9781 8.06639C30.6355 7.88728 31.314 7.79688 31.9954 7.79761C33.3343 7.79761 34.3591 8.11773 35.0698 8.75797ZM32.9558 14.6711C33.2863 14.4741 33.5357 14.1657 33.6595 13.8014V12.9256H31.9532C30.9324 12.9256 30.422 13.2598 30.422 13.9282C30.419 14.0727 30.4506 14.2158 30.5142 14.3455C30.5778 14.4753 30.6715 14.588 30.7874 14.6742C31.0915 14.876 31.4529 14.9736 31.8173 14.952C32.2145 14.9601 32.6063 14.8588 32.9498 14.6591L32.9558 14.6711Z" fill="#19272E"/>
<path d="M39.525 16.0604C38.8221 15.7057 38.2322 15.1618 37.8217 14.49C37.4104 13.8028 37.2011 13.0136 37.2177 12.2129C37.201 11.4112 37.4103 10.621 37.8217 9.93278C38.2322 9.26093 38.8221 8.71705 39.525 8.36238C40.2885 7.97707 41.1343 7.78325 41.9893 7.79763C42.8132 7.77786 43.628 7.97247 44.354 8.36238C45.0127 8.72259 45.5324 9.29223 45.8308 9.9811L43.901 11.017C43.7236 10.6561 43.4469 10.3534 43.1035 10.1442C42.7601 9.93507 42.3642 9.8282 41.9622 9.83614C41.6647 9.82771 41.3686 9.87986 41.0919 9.9894C40.8152 10.0989 40.5636 10.2636 40.3525 10.4734C40.1345 10.7054 39.9657 10.9791 39.8562 11.278C39.7467 11.577 39.6988 11.895 39.7153 12.2129C39.699 12.5303 39.7471 12.8478 39.8566 13.1462C39.9661 13.4446 40.1347 13.7178 40.3525 13.9494C40.5632 14.1597 40.8147 14.3248 41.0915 14.4343C41.3683 14.5439 41.6646 14.5957 41.9622 14.5866C42.3634 14.5965 42.7589 14.4904 43.1013 14.2809C43.4436 14.0714 43.7182 13.7675 43.8919 13.4058L45.8217 14.4598C45.5146 15.1368 44.9965 15.6962 44.3449 16.0543C43.62 16.4477 42.8048 16.6444 41.9803 16.6251C41.1282 16.638 40.2858 16.4442 39.525 16.0604Z" fill="#19272E"/>
<path d="M53.462 8.75798C54.1748 9.38815 54.5311 10.3415 54.5311 11.6179V16.5103H52.2027V15.4322C51.7376 16.2375 50.8668 16.6352 49.5904 16.6251C49.0022 16.6402 48.4179 16.5268 47.878 16.2929C47.427 16.0985 47.042 15.7775 46.7697 15.3688C46.5128 14.9692 46.3794 14.5028 46.3862 14.0279C46.3733 13.6643 46.4491 13.3031 46.607 12.9753C46.7648 12.6476 46.9999 12.3631 47.2922 12.1464C47.8962 11.6894 48.8233 11.4619 50.0736 11.4639H52.0517C52.0661 11.2315 52.0291 10.9987 51.9435 10.7821C51.858 10.5655 51.7258 10.3704 51.5564 10.2106C51.1318 9.88917 50.6047 9.73349 50.0736 9.7727C49.6162 9.77334 49.1617 9.84569 48.7267 9.98712C48.3185 10.1127 47.936 10.3101 47.5972 10.57L46.7063 8.83348C47.2187 8.48293 47.7878 8.22343 48.3884 8.0664C49.0448 7.88708 49.7223 7.79668 50.4028 7.79761C51.7316 7.79761 52.7513 8.11774 53.462 8.75798ZM51.348 14.6712C51.6775 14.4737 51.9259 14.1654 52.0487 13.8014V12.9256H50.3424C49.3216 12.9256 48.8112 13.2598 48.8112 13.9282C48.8073 14.0755 48.8394 14.2215 48.9046 14.3536C48.9699 14.4857 49.0664 14.5999 49.1857 14.6863C49.4898 14.8881 49.8512 14.9856 50.2155 14.9641C50.6128 14.9671 51.0033 14.8616 51.345 14.6591L51.348 14.6712Z" fill="#19272E"/>
<path d="M65.2882 4.672V16.4983H62.9145V15.5108C62.2984 16.2537 61.4055 16.6252 60.2358 16.6252C59.4715 16.6367 58.7173 16.4505 58.0463 16.0846C57.3952 15.7276 56.8606 15.1908 56.5061 14.5384C56.1237 13.824 55.9323 13.023 55.9504 12.213C55.9327 11.402 56.1241 10.6001 56.5061 9.88453C56.8606 9.23208 57.3952 8.69534 58.0463 8.33829C58.7178 7.97365 59.4717 7.78751 60.2358 7.79771C60.7135 7.77134 61.1911 7.85048 61.6347 8.02951C62.0784 8.20854 62.4772 8.48306 62.8028 8.83357V4.672H65.2882ZM62.229 13.9404C62.4416 13.7078 62.6061 13.4354 62.7129 13.1389C62.8197 12.8424 62.8666 12.5277 62.8511 12.213C62.8669 11.8977 62.82 11.5825 62.7132 11.2855C62.6064 10.9884 62.4419 10.7155 62.229 10.4825C62.0288 10.2711 61.7862 10.1043 61.5172 9.99293C61.2482 9.88157 60.9587 9.82817 60.6676 9.83621C60.3739 9.82825 60.0817 9.88161 59.8098 9.99289C59.5378 10.1042 59.2921 10.2709 59.0882 10.4825C58.8757 10.7157 58.7116 10.9887 58.6053 11.2857C58.499 11.5827 58.4527 11.8979 58.4691 12.213C58.453 12.5275 58.4994 12.8422 58.6057 13.1387C58.7119 13.4352 58.8759 13.7077 59.0882 13.9404C59.2921 14.152 59.5378 14.3187 59.8098 14.43C60.0817 14.5413 60.3739 14.5946 60.6676 14.5867C60.9587 14.5947 61.2482 14.5413 61.5172 14.43C61.7862 14.3186 62.0288 14.1518 62.229 13.9404Z" fill="#19272E"/>
<path d="M75.2994 12.9135H68.8125C68.9147 13.4247 69.2114 13.8762 69.64 14.1729C70.117 14.492 70.682 14.6536 71.2557 14.6349C71.6672 14.6439 72.0768 14.5763 72.4637 14.4356C72.8237 14.2916 73.1513 14.077 73.427 13.8044L74.7498 15.2389C73.9445 16.1631 72.7647 16.6251 71.2104 16.6251C70.323 16.6433 69.444 16.4497 68.6464 16.0604C67.9334 15.7135 67.3357 15.1682 66.925 14.49C66.5161 13.8018 66.3069 13.0133 66.321 12.2129C66.3115 11.415 66.5203 10.6296 66.925 9.94185C67.3073 9.27722 67.8652 8.73075 68.5377 8.36238C69.2501 7.99529 70.0391 7.80175 70.8405 7.79756C71.6419 7.79336 72.433 7.97861 73.1492 8.33822C73.8222 8.6917 74.3789 9.2317 74.7528 9.89353C75.1505 10.6117 75.3505 11.4224 75.3327 12.2431C75.3407 12.2773 75.3296 12.5008 75.2994 12.9135ZM69.4799 10.1563C69.0877 10.4916 68.8374 10.9633 68.7793 11.476H73.0073C72.9433 10.9672 72.6905 10.501 72.2989 10.1698C71.9074 9.83865 71.4056 9.66674 70.8933 9.68817C70.3813 9.66984 69.8797 9.83595 69.4799 10.1563Z" fill="#19272E"/>
<path d="M90.224 8.75803C90.8542 9.38821 91.1703 10.3365 91.1723 11.6029V16.4983H88.6869V11.9683C88.726 11.4311 88.5765 10.8971 88.2641 10.4583C88.1146 10.2876 87.928 10.1533 87.7186 10.0659C87.5092 9.9785 87.2826 9.9402 87.0561 9.95395C86.7976 9.94188 86.5396 9.98645 86.3002 10.0845C86.0607 10.1826 85.8456 10.3318 85.6699 10.5217C85.2971 10.9986 85.1152 11.5972 85.1595 12.2008V16.4983H82.674V11.9683C82.674 10.6214 82.1324 9.94691 81.0493 9.94489C80.7931 9.9334 80.5376 9.9783 80.3006 10.0764C80.0637 10.1745 79.8512 10.3234 79.6782 10.5127C79.3369 10.8871 79.1678 11.4489 79.1678 12.1918V16.4983H76.6914V7.92451H79.0651V8.91205C79.3871 8.55002 79.788 8.26689 80.2369 8.08457C80.7162 7.88984 81.2295 7.79232 81.7469 7.79767C82.3167 7.78766 82.881 7.90963 83.3958 8.15403C83.8763 8.38858 84.2835 8.74989 84.5736 9.19895C84.9256 8.7471 85.3828 8.38833 85.9054 8.15403C86.4589 7.90611 87.0597 7.78142 87.6661 7.78861C88.136 7.7672 88.6054 7.84216 89.0453 8.00887C89.4852 8.17558 89.8863 8.43053 90.224 8.75803Z" fill="#19272E"/>
<path d="M101.437 7.92456L97.5625 17.0238C97.1699 18.0144 96.6837 18.709 96.1039 19.1137C95.485 19.528 94.7524 19.7391 94.008 19.7177C93.5592 19.7164 93.1132 19.6472 92.6852 19.5123C92.2936 19.3978 91.9304 19.2023 91.6191 18.9385L92.5251 17.1688C92.7197 17.3406 92.9438 17.4756 93.1865 17.5674C93.4221 17.6607 93.6731 17.7088 93.9264 17.7094C94.2228 17.7228 94.5152 17.6367 94.7569 17.4648C95.0102 17.2406 95.2059 16.9589 95.3277 16.6433L95.3609 16.5618L91.6463 7.92456H94.2073L96.6233 13.7411L99.0393 7.92456H101.437Z" fill="#19272E"/>
<path d="M11.3448 4.49377H13.5736L8.30067 19.5062H6.08398L11.3448 4.49377Z" fill="#E5007B"/>
<path d="M15.7902 4.49377H18.0068L12.746 19.5062H10.5293L15.7902 4.49377Z" fill="#E5007B"/>
</svg>
