<svg width="25" height="24" viewBox="0 0 25 24" fill="none" xmlns="http://www.w3.org/2000/svg">
<path d="M10.5999 12.0499C10.5999 11.0486 11.3989 10.1474 12.4975 10.1474H16.4924V8.54531V4.90248C16.4924 3.90117 15.6934 3 14.5948 3H6.30533C5.30659 3 4.40773 3.90117 4.50761 4.90248L4.50761 19.0975C4.50761 20.0988 5.30659 21 6.4052 21H14.6947C15.6934 21 16.5923 20.0988 16.4924 19.0975V15.4543V13.8522H12.4975C11.4987 13.9523 10.5999 13.0512 10.5999 12.0499Z" fill="#D818A5"/>
<path d="M22.2837 11.3994L19.1505 8.23003C18.8473 7.92332 18.342 7.92332 18.0388 8.23003C17.7356 8.53674 17.7356 9.04792 18.0388 9.35463L19.858 11.1949H12.3789C11.9746 11.1949 11.5703 11.5016 11.5703 12.0128C11.5703 12.524 11.8735 12.8307 12.3789 12.8307H19.858L18.0388 14.6709C17.7356 14.9776 17.7356 15.4888 18.0388 15.7955C18.2409 16 18.342 16 18.5441 16C18.7463 16 18.9484 15.8978 19.0495 15.7955L22.1826 12.6262C22.5869 12.115 22.5869 11.7061 22.2837 11.3994Z" fill="#D818A5"/>
</svg>
