<svg width="24" height="24" viewBox="0 0 24 24" fill="none" xmlns="http://www.w3.org/2000/svg">
<path d="M17.9995 0H6.00052C2.68537 0 0 2.68658 0 6.00051V17.9995C0 21.3134 2.68537 24 6.00052 24H17.9995C21.325 24 24 21.3134 24 17.9995V6.00051C24 2.68658 21.3146 0 17.9995 0ZM17.9995 1.77001C18.5614 1.7748 19.1168 1.88804 19.6341 2.10327C20.1513 2.3185 20.6202 2.63149 21.0139 3.02436C21.4077 3.41723 21.7186 3.88228 21.9289 4.39294C22.1392 4.9036 22.2448 5.44986 22.2395 6.00051V17.9995C22.2448 18.5501 22.1392 19.0964 21.9289 19.6071C21.7186 20.1177 21.4077 20.5828 21.0139 20.9756C20.6202 21.3685 20.1513 21.6815 19.6341 21.8967C19.1168 22.112 18.5614 22.2252 17.9995 22.23H6.00052C4.86713 22.2182 3.78487 21.766 2.99143 20.9728C2.19799 20.1796 1.75824 19.1102 1.76877 17.9995V6.00051C1.75824 4.88981 2.19799 3.82042 2.99143 3.02721C3.78487 2.234 4.86713 1.78183 6.00052 1.77001H17.9995Z" fill="#19272E"/>
<path d="M11.2846 4.49329H13.5459L8.17934 19.5068H5.91797L11.2846 4.49329Z" fill="#E5007B"/>
<path d="M15.8237 4.49329H18.083L12.7164 19.5068H10.4551L15.8237 4.49329Z" fill="#E5007B"/>
</svg>
