<svg width="48" height="49" viewBox="0 0 48 49" fill="none" xmlns="http://www.w3.org/2000/svg">
<g clip-path="url(#clip0)">
<path d="M35.999 0.5H12.001C5.37075 0.5 0 5.87316 0 12.501V36.499C0 43.1268 5.37075 48.5 12.001 48.5H35.999C42.65 48.5 48 43.1268 48 36.499V12.501C48 5.87316 42.6293 0.5 35.999 0.5ZM35.999 4.04001C37.1228 4.0496 38.2337 4.27609 39.2681 4.70654C40.3026 5.13699 41.2404 5.76297 42.0279 6.54871C42.8154 7.33445 43.4372 8.26455 43.8578 9.28587C44.2784 10.3072 44.4895 11.3997 44.4791 12.501V36.499C44.4895 37.6003 44.2784 38.6928 43.8578 39.7141C43.4372 40.7354 42.8154 41.6656 42.0279 42.4513C41.2404 43.237 40.3026 43.863 39.2681 44.2935C38.2337 44.7239 37.1228 44.9504 35.999 44.96H12.001C9.73427 44.9363 7.56975 44.032 5.98286 42.4456C4.39598 40.8592 3.51649 38.7204 3.53754 36.499V12.501C3.51649 10.2796 4.39598 8.14084 5.98286 6.55443C7.56975 4.96801 9.73427 4.06367 12.001 4.04001H35.999Z" fill="white"/>
<path d="M22.5672 9.48651H27.0899L16.3567 39.5135H11.834L22.5672 9.48651Z" fill="currentColor" fill-opacity="0.8"/>
<path d="M31.6475 9.48651H36.1661L25.4329 39.5135H20.9102L31.6475 9.48651Z" fill="currentColor" fill-opacity="0.8"/>
</g>
<defs>
<clipPath id="clip0">
<rect width="48" height="48" fill="white" transform="translate(0 0.5)"/>
</clipPath>
</defs>
</svg>
