<svg width="203" height="24" viewBox="0 0 203 24" fill="none" xmlns="http://www.w3.org/2000/svg">
<path d="M12.6203 7.12207V9.34771H5.28457C3.22629 9.34771 2.17935 10.416 2.17935 12.5776V17.563C2.17935 19.7281 3.22629 20.8249 5.28457 20.8249H12.6203V23.0185H4.86793C1.61315 23.0434 0 21.3377 0 17.9547V12.225C0 8.84205 1.61315 7.12207 4.86793 7.12207H12.6203Z" fill="white"/>
<path d="M18.0722 7.16479V17.5879C18.0722 19.753 19.1156 20.8498 21.1489 20.8498H26.2127C28.2745 20.8498 29.3215 19.753 29.3215 17.5879V7.16479H31.4581V17.9547C31.4581 21.3377 29.8165 23.0434 26.5902 23.0434H20.7608C17.506 23.0434 15.8929 21.3377 15.8929 17.9547V7.16479H18.0722Z" fill="white"/>
<path d="M38.0104 0V17.5915C38.0104 19.753 39.0538 20.8498 41.0871 20.8498H46.2115C48.2733 20.8498 49.3167 19.753 49.3167 17.5915V12.606C49.3167 10.4445 48.2733 9.37619 46.2115 9.37619H39.0894V7.13986H46.6495C49.9042 7.13986 51.5138 8.8456 51.5138 12.2286V17.9547C51.5138 21.3377 49.9042 23.0434 46.6495 23.0434H40.699C37.4442 23.0434 35.8311 21.3377 35.8311 17.9547V0H38.0104Z" fill="white"/>
<path d="M57.6887 17.5915C57.6887 19.753 58.757 20.8498 60.8936 20.8498H65.523C67.6596 20.8498 68.7457 19.753 68.7457 17.5915V12.606C68.7457 10.4445 67.6596 9.37619 65.523 9.37619H60.8936C58.757 9.37619 57.6887 10.4445 57.6887 12.606V17.5915ZM65.961 7.13986C69.3083 7.13986 71.0141 8.84559 71.0141 12.2286V17.9547C71.0141 21.3377 69.3083 23.0434 65.961 23.0434H60.477C57.1011 23.0434 55.4274 21.3377 55.4274 17.9547V12.2286C55.4274 8.84559 57.1011 7.13986 60.477 7.13986H65.961Z" fill="white"/>
<path d="M88.0358 7.13986V9.05926H78.4032C77.0571 9.05926 76.4019 9.69668 76.4019 10.9466V12.1965C76.4019 13.3539 76.9966 13.9343 78.2536 13.9343H85.3187C87.5906 13.9343 88.7231 15.0311 88.7231 17.1926V19.5109C88.7231 21.8576 87.5016 23.0434 85.0516 23.0434H74.4255V21.124H84.4783C85.9027 21.124 86.6149 20.5151 86.6149 19.2367V17.449C86.6149 16.2917 86.0167 15.7113 84.7917 15.7113H77.7159C75.444 15.7113 74.2795 14.6145 74.2795 12.4494V10.6688C74.2795 8.35061 75.476 7.16479 77.8655 7.16479L88.0358 7.13986Z" fill="white"/>
<path d="M101.315 6.92621H103.69L98.0529 23.0185H95.6777L101.315 6.92621Z" fill="#E5007B"/>
<path d="M106.083 6.92621H108.458L102.821 23.0185H100.446L106.083 6.92621Z" fill="#E5007B"/>
<path d="M118.365 11.3953C119.127 12.0719 119.512 13.0939 119.512 14.4613V19.6925H117.019V18.5458C116.516 19.4005 115.581 19.8278 114.216 19.8278C113.587 19.8435 112.961 19.722 112.383 19.4717C111.899 19.2614 111.486 18.9165 111.193 18.4782C110.919 18.054 110.777 17.5585 110.784 17.0538C110.768 16.6646 110.848 16.2777 111.016 15.9264C111.185 15.5752 111.436 15.2703 111.749 15.0382C112.392 14.5492 113.386 14.3046 114.729 14.3046H116.848C116.864 14.0556 116.825 13.806 116.733 13.5739C116.641 13.3418 116.499 13.1329 116.317 12.9621C115.864 12.6158 115.298 12.4485 114.729 12.4921C114.239 12.493 113.753 12.5711 113.287 12.7235C112.852 12.8575 112.444 13.0686 112.083 13.3467L111.125 11.4843C111.674 11.1092 112.284 10.8321 112.927 10.6653C113.632 10.4725 114.359 10.3755 115.089 10.3768C116.511 10.3697 117.603 10.7092 118.365 11.3953ZM116.09 17.7197C116.443 17.5083 116.71 17.1774 116.841 16.7867V15.8466H115.021C113.927 15.8466 113.38 16.2027 113.38 16.9149C113.375 17.0729 113.409 17.2296 113.479 17.3712C113.549 17.5128 113.653 17.635 113.782 17.7268C114.107 17.9417 114.493 18.0454 114.882 18.0224C115.305 18.0328 115.722 17.9282 116.09 17.7197Z" fill="white"/>
<path d="M123.14 19.2295C122.377 18.8475 121.738 18.257 121.297 17.5265C120.856 16.796 120.631 15.9555 120.648 15.1023C120.63 14.2495 120.855 13.4092 121.296 12.6792C121.738 11.9492 122.377 11.3594 123.14 10.9786C123.958 10.5651 124.863 10.3573 125.779 10.3733C126.664 10.3519 127.538 10.5605 128.318 10.9786C129.025 11.3621 129.581 11.9733 129.896 12.7129L127.841 13.8168C127.652 13.4307 127.357 13.1064 126.991 12.8819C126.625 12.6574 126.202 12.5419 125.772 12.5491C125.453 12.5402 125.136 12.5962 124.84 12.7138C124.544 12.8313 124.274 13.0079 124.048 13.2328C123.814 13.4808 123.633 13.7738 123.516 14.0939C123.398 14.414 123.347 14.7547 123.365 15.0952C123.346 15.4358 123.398 15.7765 123.515 16.0967C123.633 16.4169 123.814 16.7098 124.048 16.9576C124.274 17.1832 124.543 17.3602 124.84 17.4778C125.136 17.5954 125.453 17.651 125.772 17.6413C126.202 17.6522 126.625 17.539 126.992 17.3155C127.359 17.0919 127.654 16.7674 127.841 16.3807L129.906 17.5096C129.58 18.2355 129.026 18.8355 128.329 19.2189C127.55 19.6409 126.675 19.8521 125.79 19.8314C124.871 19.8502 123.961 19.6436 123.14 19.2295Z" fill="white"/>
<path d="M138.079 11.3953C138.85 12.0624 139.236 13.0797 139.236 14.4471V19.6925H136.744V18.5458C136.245 19.4005 135.319 19.8278 133.945 19.8278C133.313 19.8439 132.686 19.7224 132.107 19.4717C131.624 19.2615 131.211 18.9166 130.918 18.4782C130.645 18.0534 130.503 17.5583 130.508 17.0538C130.494 16.6648 130.574 16.2781 130.742 15.927C130.91 15.576 131.161 15.2709 131.473 15.0382C132.117 14.5492 133.11 14.3047 134.454 14.3047H136.59C136.604 14.0517 136.561 13.799 136.464 13.5649C136.367 13.3308 136.219 13.1212 136.031 12.9515C135.576 12.6055 135.01 12.4383 134.44 12.4814C133.956 12.4842 133.475 12.5623 133.015 12.7129C132.58 12.8476 132.173 13.0587 131.812 13.3361L130.854 11.4736C131.403 11.0992 132.012 10.8221 132.655 10.6546C133.36 10.4619 134.087 10.3648 134.817 10.3662C136.23 10.3662 137.317 10.7092 138.079 11.3953ZM135.807 17.7339C136.161 17.5225 136.427 17.1916 136.558 16.8009V15.8466H134.732C133.637 15.8466 133.09 16.2027 133.09 16.9149C133.085 17.0729 133.119 17.2296 133.189 17.3712C133.26 17.5128 133.364 17.635 133.492 17.7268C133.819 17.9423 134.206 18.046 134.596 18.0224C135.02 18.0342 135.439 17.9295 135.807 17.7197V17.7339Z" fill="white"/>
<path d="M150.756 7.01523V19.6925H148.21V18.6242C147.552 19.4219 146.596 19.8207 145.34 19.8207C144.521 19.833 143.712 19.633 142.993 19.2402C142.296 18.8578 141.724 18.283 141.344 17.5844C140.934 16.8186 140.728 15.9601 140.746 15.0916C140.727 14.2231 140.934 13.3644 141.344 12.5989C141.722 11.8988 142.295 11.3235 142.993 10.943C143.712 10.5503 144.521 10.3503 145.34 10.3626C145.852 10.3341 146.364 10.4185 146.839 10.6099C147.315 10.8013 147.743 11.095 148.093 11.4701V7.01523H150.756ZM147.476 16.9505C147.704 16.7003 147.88 16.4075 147.993 16.0891C148.107 15.7707 148.156 15.4329 148.139 15.0952C148.156 14.7578 148.106 14.4204 147.992 14.1025C147.877 13.7846 147.701 13.4926 147.473 13.2435C147.026 12.7988 146.421 12.5491 145.79 12.5491C145.16 12.5491 144.555 12.7988 144.108 13.2435C143.88 13.4926 143.703 13.7846 143.589 14.1025C143.475 14.4204 143.425 14.7578 143.442 15.0952C143.425 15.4331 143.475 15.7711 143.589 16.0895C143.703 16.408 143.88 16.7006 144.108 16.9505C144.556 17.3935 145.16 17.6419 145.79 17.6419C146.42 17.6419 147.025 17.3935 147.473 16.9505H147.476Z" fill="white"/>
<path d="M161.486 15.8466H154.549C154.657 16.3957 154.977 16.8803 155.439 17.1962C155.952 17.5419 156.562 17.7164 157.18 17.6948C157.614 17.7023 158.045 17.6298 158.452 17.4811C158.839 17.3267 159.191 17.0967 159.488 16.8045L160.912 18.3429C160.046 19.3328 158.782 19.8278 157.12 19.8278C156.167 19.8478 155.223 19.6403 154.367 19.2224C153.605 18.8474 152.965 18.2632 152.522 17.5381C152.1 16.7951 151.878 15.9552 151.878 15.1005C151.878 14.2459 152.1 13.406 152.522 12.663C152.94 11.9468 153.55 11.3611 154.282 10.9715C155.046 10.578 155.892 10.3706 156.752 10.3663C157.611 10.3619 158.46 10.5608 159.228 10.9466C159.948 11.3238 160.545 11.9013 160.944 12.6096C161.372 13.3797 161.587 14.25 161.567 15.1308C161.535 15.1664 161.518 15.405 161.486 15.8466ZM155.261 12.8945C154.842 13.2489 154.574 13.7491 154.51 14.294H159.036C158.966 13.753 158.698 13.257 158.284 12.9016C157.864 12.5501 157.329 12.365 156.781 12.3817C156.229 12.362 155.688 12.5443 155.261 12.8945Z" fill="white"/>
<path d="M177.485 11.3953C178.162 12.0719 178.5 13.0904 178.5 14.4435V19.6925H175.836V14.8388C175.881 14.2591 175.721 13.6821 175.384 13.2079C175.224 13.0259 175.024 12.8828 174.8 12.7896C174.576 12.6965 174.334 12.6556 174.092 12.6702C173.815 12.6568 173.539 12.7041 173.282 12.8087C173.026 12.9132 172.795 13.0726 172.607 13.2755C172.207 13.7889 172.012 14.4321 172.058 15.081V19.6925H169.395V14.8388C169.395 13.393 168.814 12.6702 167.653 12.6702C167.379 12.658 167.105 12.7058 166.851 12.8104C166.597 12.9149 166.369 13.0737 166.183 13.2755C165.784 13.7894 165.59 14.4325 165.638 15.081V19.6925H162.97V10.5015H165.517V11.5698C165.861 11.1807 166.291 10.8771 166.774 10.6831C167.291 10.4732 167.846 10.369 168.405 10.3769C169.013 10.3668 169.615 10.4972 170.164 10.7579C170.68 11.0085 171.118 11.3966 171.428 11.8796C171.804 11.3979 172.293 11.0163 172.852 10.7686C173.447 10.5025 174.092 10.3689 174.743 10.3769C175.245 10.3522 175.747 10.4297 176.219 10.6048C176.69 10.7799 177.121 11.0488 177.485 11.3953Z" fill="white"/>
<path d="M189.504 10.5015L185.352 20.2551C184.928 21.3234 184.408 22.0606 183.788 22.495C183.125 22.9405 182.34 23.1683 181.541 23.1467C181.058 23.1463 180.578 23.0718 180.117 22.9259C179.697 22.8011 179.306 22.5915 178.97 22.3098L179.946 20.4118C180.154 20.5976 180.396 20.7426 180.658 20.8391C180.911 20.9403 181.18 20.9935 181.452 20.9958C181.77 21.01 182.082 20.9158 182.339 20.7287C182.613 20.4901 182.824 20.1882 182.955 19.8492L182.991 19.7637L179.009 10.505H181.758L184.344 16.7368L186.954 10.5015H189.504Z" fill="white"/>
<path d="M195.857 6.92621H198.232L192.595 23.0185H190.219L195.857 6.92621Z" fill="#E5007B"/>
<path d="M200.625 6.92621H203L197.359 23.0185H194.988L200.625 6.92621Z" fill="#E5007B"/>
</svg>
