<svg width="14" height="14" viewBox="0 0 14 14" fill="none" xmlns="http://www.w3.org/2000/svg">
<g id="Type=long-left, Size=xs">
<g id="Group 1590">
<path id="Vector 5 (Stroke)" fill-rule="evenodd" clip-rule="evenodd" d="M4.77584 4.20894C4.57152 3.96259 4.20714 3.9293 3.96196 4.1346L1.29456 6.36808C0.901809 6.69694 0.901807 7.30306 1.29456 7.63192L3.96196 9.8654C4.20714 10.0707 4.57152 10.0374 4.77584 9.79106C4.98015 9.54471 4.94703 9.17858 4.70185 8.97328L2.3452 7L4.70185 5.02672C4.94703 4.82142 4.98015 4.45529 4.77584 4.20894Z" fill="currentColor"/>
<path id="Line 6 (Stroke)" fill-rule="evenodd" clip-rule="evenodd" d="M13 7.00001C13 6.67933 12.7413 6.41937 12.4221 6.41937L2.02042 6.41937C1.70127 6.41937 1.44254 6.67933 1.44254 7.00001C1.44254 7.32069 1.70127 7.58065 2.02042 7.58065L12.4221 7.58066C12.7413 7.58066 13 7.32069 13 7.00001Z" fill="currentColor"/>
</g>
</g>
</svg>
