<svg width="14" height="14" viewBox="0 0 14 14" fill="none" xmlns="http://www.w3.org/2000/svg">
<g id="Type=map-pin, Size=xs">
<g id="Group 1599">
<path id="Union" d="M10.9918 7.85361L10.9918 7.85366C10.9797 7.87965 10.9696 7.9059 10.9615 7.93224L10.9315 7.98158L10.9209 7.99913L10.9114 8.01737C10.8218 8.1908 10.7209 8.35757 10.6097 8.51671L7.3126 12.6467C7.15247 12.8473 6.84753 12.8473 6.6874 12.6467L3.39029 8.51671C3.2791 8.35757 3.17821 8.1908 3.08856 8.01738L3.07913 7.99914L3.06848 7.98159L3.03853 7.93225C3.03037 7.90589 3.02028 7.87963 3.00818 7.85361C2.74643 7.29103 2.6 6.66344 2.6 6C2.6 3.56995 4.56995 1.6 7 1.6C9.43005 1.6 11.4 3.56995 11.4 6C11.4 6.66344 11.2536 7.29103 10.9918 7.85361ZM11.0336 7.81341C11.0336 7.81336 11.0337 7.8133 11.0337 7.81324L11.0337 7.81332L11.0336 7.81341ZM2.54467 8.06926L2.46417 8.10671L2.54467 8.06926Z" stroke="currentColor" stroke-width="1.2"/>
<path id="Ellipse 169" d="M8.4 6C8.4 6.7732 7.7732 7.4 7 7.4C6.2268 7.4 5.6 6.7732 5.6 6C5.6 5.2268 6.2268 4.6 7 4.6C7.7732 4.6 8.4 5.2268 8.4 6Z" stroke="currentColor" stroke-width="1.2"/>
</g>
</g>
</svg>
