<svg width="20" height="20" viewBox="0 0 20 20" fill="none" xmlns="http://www.w3.org/2000/svg">
<path d="M6 1V4C6 4.53043 5.78929 5.03914 5.41421 5.41421C5.03914 5.78929 4.53043 6 4 6H1M19 6H16C15.4696 6 14.9609 5.78929 14.5858 5.41421C14.2107 5.03914 14 4.53043 14 4V1M14 19V16C14 15.4696 14.2107 14.9609 14.5858 14.5858C14.9609 14.2107 15.4696 14 16 14H19M1 14H4C4.53043 14 5.03914 14.2107 5.41421 14.5858C5.78929 14.9609 6 15.4696 6 16V19" stroke="white" stroke-width="2" stroke-linecap="round" stroke-linejoin="round"/>
</svg>
