<svg width="65" height="64" viewBox="0 0 65 64" fill="none" xmlns="http://www.w3.org/2000/svg">
<g opacity="0.6">
<path d="M50.8861 40.4608V45.4472C50.8861 47.2988 50.1507 49.0744 48.8414 50.3836C47.5322 51.6929 45.7566 52.4283 43.9051 52.4283H12.9891C11.9312 52.4283 10.9165 52.008 10.1684 51.2598C9.42028 50.5119 9 49.497 9 48.4391V22.5097C9 21.4517 9.42028 20.437 10.1684 19.6889C10.9165 18.9408 11.9312 18.5205 12.9891 18.5205H43.9051C45.7566 18.5205 47.5322 19.256 48.8414 20.5652C50.1507 21.8744 50.8861 23.65 50.8861 25.5015V30.4879" stroke="#6F7377" stroke-width="2.6" stroke-linecap="round" stroke-linejoin="round"/>
<path d="M44.6712 18.5609L43.4086 13.5106C43.3444 13.2536 43.2295 13.012 43.0707 12.7998C42.9122 12.5877 42.7127 12.4093 42.4843 12.2751C42.256 12.1408 42.0033 12.0534 41.7406 12.018C41.4781 11.9825 41.2112 11.9997 40.9553 12.0685L16.9785 18.521" stroke="#6F7377" stroke-width="2.6" stroke-linecap="round" stroke-linejoin="round"/>
<path d="M14.9922 24.5039H18.9813" stroke="#6F7377" stroke-width="2.6" stroke-linecap="round" stroke-linejoin="round"/>
<path d="M22.9697 24.5039H26.9589" stroke="#6F7377" stroke-width="2.6" stroke-linecap="round" stroke-linejoin="round"/>
<path d="M30.9482 24.5039H34.9374" stroke="#6F7377" stroke-width="2.6" stroke-linecap="round" stroke-linejoin="round"/>
<path d="M38.9268 24.5039H42.9159" stroke="#6F7377" stroke-width="2.6" stroke-linecap="round" stroke-linejoin="round"/>
<path d="M14.9922 46.4443H18.9813" stroke="#6F7377" stroke-width="2.6" stroke-linecap="round" stroke-linejoin="round"/>
<path d="M22.9697 46.4443H26.9589" stroke="#6F7377" stroke-width="2.6" stroke-linecap="round" stroke-linejoin="round"/>
<path d="M30.9482 46.4443H34.9374" stroke="#6F7377" stroke-width="2.6" stroke-linecap="round" stroke-linejoin="round"/>
<path d="M38.9268 46.4443H42.9159" stroke="#6F7377" stroke-width="2.6" stroke-linecap="round" stroke-linejoin="round"/>
<path d="M50.8942 30.4893H42.9159C40.7127 30.4893 38.9268 32.2752 38.9268 34.4784V36.473C38.9268 38.6762 40.7127 40.4621 42.9159 40.4621H50.8942C53.0974 40.4621 54.8834 38.6762 54.8834 36.473V34.4784C54.8834 32.2752 53.0974 30.4893 50.8942 30.4893Z" stroke="#6F7377" stroke-width="2.6" stroke-linecap="round" stroke-linejoin="round"/>
<path d="M44.902 35.9738C44.6265 35.9738 44.4033 35.7507 44.4033 35.4752C44.4033 35.1998 44.6265 34.9766 44.902 34.9766" stroke="#6F7377" stroke-width="2.6"/>
<path d="M44.9023 35.9738C45.1778 35.9738 45.401 35.7507 45.401 35.4752C45.401 35.1998 45.1778 34.9766 44.9023 34.9766" stroke="#6F7377" stroke-width="2.6"/>
</g>
</svg>
