<svg viewBox="0 0 44 44" fill="none" xmlns="http://www.w3.org/2000/svg">
<path d="M18.6 8.7998H8.8C8.05739 8.7998 7.3452 9.0948 6.8201 9.61991C6.295 10.145 6 10.8572 6 11.5998V31.1998C6 31.9424 6.295 32.6546 6.8201 33.1797C7.3452 33.7048 8.05739 33.9998 8.8 33.9998H28.4C29.1426 33.9998 29.8548 33.7048 30.3799 33.1797C30.905 32.6546 31.2 31.9424 31.2 31.1998V21.3998" stroke="currentColor" stroke-width="2.8" stroke-linecap="round" stroke-linejoin="round"/>
<path d="M28.9741 6.86238C29.5263 6.31021 30.2752 6 31.0561 6C31.8369 6 32.5858 6.31021 33.138 6.86238C33.6902 7.41455 34.0004 8.16345 34.0004 8.94433C34.0004 9.72522 33.6902 10.4741 33.138 11.0263L19.9523 24.212L14.4004 25.6L15.7884 20.0481L28.9741 6.86238Z" stroke="currentColor" stroke-width="2.8" stroke-linecap="round" stroke-linejoin="round"/>
</svg>
