<svg width="24" height="24" viewBox="0 0 24 24" fill="none" xmlns="http://www.w3.org/2000/svg">
<g id="Type=pen, Size=sm">
<g id="Group 1588">
<g id="Rectangle 527">
<mask id="path-1-inside-1_1_793" fill="white">
<path d="M9.62109 16.3789L6.08556 12.8434L16.7782 2.15076C17.1687 1.76023 17.8019 1.76023 18.1924 2.15076L20.3137 4.27208C20.7042 4.6626 20.7042 5.29577 20.3137 5.68629L9.62109 16.3789Z"/>
</mask>
<path d="M9.62109 16.3789L6.08556 12.8434L16.7782 2.15076C17.1687 1.76023 17.8019 1.76023 18.1924 2.15076L20.3137 4.27208C20.7042 4.6626 20.7042 5.29577 20.3137 5.68629L9.62109 16.3789Z" stroke="currentColor" stroke-width="3.6" mask="url(#path-1-inside-1_1_793)"/>
</g>
<path id="Polygon 3" d="M4.62199 18.1423C4.44197 18.1838 4.28063 18.0225 4.32218 17.8425L5.29289 13.636L8.82843 17.1716L4.62199 18.1423Z" fill="currentColor"/>
<line id="Line 3" x1="0.9" y1="-0.9" x2="19.1" y2="-0.9" transform="matrix(0.999987 0.00501737 0.00501762 0.999987 2 21)" stroke="currentColor" stroke-width="1.8" stroke-linecap="round"/>
<line id="Line 3_2" x1="15.6364" y1="4.3636" x2="17.7577" y2="6.48492" stroke="currentColor" stroke-width="1.8"/>
</g>
</g>
</svg>
