<svg width="64" height="64" viewBox="0 0 64 64" fill="none" xmlns="http://www.w3.org/2000/svg">
<g opacity="0.6">
<path d="M53.6178 29.9977C52.9702 29.9977 52.4446 29.4751 52.4446 28.8311C52.4446 28.1872 52.9702 27.6646 53.6178 27.6646H56.4781C56.5743 27.6646 56.6705 27.6529 56.7597 27.6296C57.0671 27.5526 57.3228 27.3636 57.4847 27.0977C57.6466 26.8317 57.6912 26.5167 57.6161 26.2134L54.0965 12.215C53.9651 11.697 53.4958 11.3331 52.9585 11.3331H12.0393C11.4996 11.3331 11.0326 11.697 10.9012 12.2173L7.38162 26.2158C7.35815 26.3091 7.34642 26.4047 7.34642 26.5004C7.34642 26.813 7.46843 27.1047 7.689 27.324C7.90956 27.5456 8.20521 27.6669 8.51963 27.6669H11.3823C12.0299 27.6669 12.5555 28.1895 12.5555 28.8335C12.5555 29.4774 12.0299 30 11.3823 30H8.51963C7.57872 30 6.69646 29.636 6.03008 28.9758C5.36604 28.3155 5 27.436 5 26.5004C5 26.2134 5.0352 25.9288 5.10559 25.6511L8.62522 11.6527C9.01707 10.0895 10.4202 9 12.0393 9H52.9585C54.5752 9 55.9783 10.0895 56.3725 11.648L59.8922 25.6465C60.1221 26.5541 59.9813 27.4943 59.498 28.2969C59.0146 29.0994 58.2473 29.664 57.3346 29.8927C57.0553 29.9627 56.7691 29.9977 56.4781 29.9977H53.6178Z" fill="#6F7377"/>
<path d="M12.7224 25.7647C12.08 25.7647 11.5587 25.2376 11.5587 24.5882C11.5587 23.9388 12.08 23.4118 12.7224 23.4118H15.0496C15.692 23.4118 16.2133 23.9388 16.2133 24.5882C16.2133 25.2376 15.692 25.7647 15.0496 25.7647H12.7224ZM17.3769 21.0588C16.7346 21.0588 16.2133 20.5318 16.2133 19.8824C16.2133 19.2329 16.7346 18.7059 17.3769 18.7059H19.7042C20.3465 18.7059 20.8678 19.2329 20.8678 19.8824C20.8678 20.5318 20.3465 21.0588 19.7042 21.0588H17.3769ZM24.3588 21.0588C23.7164 21.0588 23.1951 20.5318 23.1951 19.8824C23.1951 19.2329 23.7164 18.7059 24.3588 18.7059H26.686C27.3284 18.7059 27.8497 19.2329 27.8497 19.8824C27.8497 20.5318 27.3284 21.0588 26.686 21.0588H24.3588ZM31.3406 21.0588C30.6983 21.0588 30.1769 20.5318 30.1769 19.8824C30.1769 19.2329 30.6983 18.7059 31.3406 18.7059H33.6679C34.3102 18.7059 34.8315 19.2329 34.8315 19.8824C34.8315 20.5318 34.3102 21.0588 33.6679 21.0588H31.3406ZM38.3224 21.0588C37.6801 21.0588 37.1588 20.5318 37.1588 19.8824C37.1588 19.2329 37.6801 18.7059 38.3224 18.7059H40.6497C41.292 18.7059 41.8133 19.2329 41.8133 19.8824C41.8133 20.5318 41.292 21.0588 40.6497 21.0588H38.3224ZM45.3043 21.0588C44.6619 21.0588 44.1406 20.5318 44.1406 19.8824C44.1406 19.2329 44.6619 18.7059 45.3043 18.7059H47.6315C48.2739 18.7059 48.7952 19.2329 48.7952 19.8824C48.7952 20.5318 48.2739 21.0588 47.6315 21.0588H45.3043ZM17.3769 16.3529C16.7346 16.3529 16.2133 15.8259 16.2133 15.1765C16.2133 14.5271 16.7346 14 17.3769 14H19.7042C20.3465 14 20.8678 14.5271 20.8678 15.1765C20.8678 15.8259 20.3465 16.3529 19.7042 16.3529H17.3769ZM24.3588 16.3529C23.7164 16.3529 23.1951 15.8259 23.1951 15.1765C23.1951 14.5271 23.7164 14 24.3588 14H26.686C27.3284 14 27.8497 14.5271 27.8497 15.1765C27.8497 15.8259 27.3284 16.3529 26.686 16.3529H24.3588ZM31.3406 16.3529C30.6983 16.3529 30.1769 15.8259 30.1769 15.1765C30.1769 14.5271 30.6983 14 31.3406 14H33.6679C34.3102 14 34.8315 14.5271 34.8315 15.1765C34.8315 15.8259 34.3102 16.3529 33.6679 16.3529H31.3406ZM38.3224 16.3529C37.6801 16.3529 37.1588 15.8259 37.1588 15.1765C37.1588 14.5271 37.6801 14 38.3224 14H40.6497C41.292 14 41.8133 14.5271 41.8133 15.1765C41.8133 15.8259 41.292 16.3529 40.6497 16.3529H38.3224ZM45.3043 16.3529C44.6619 16.3529 44.1406 15.8259 44.1406 15.1765C44.1406 14.5271 44.6619 14 45.3043 14H47.6315C48.2739 14 48.7952 14.5271 48.7952 15.1765C48.7952 15.8259 48.2739 16.3529 47.6315 16.3529H45.3043ZM19.7042 25.7647C19.0619 25.7647 18.5406 25.2376 18.5406 24.5882C18.5406 23.9388 19.0619 23.4118 19.7042 23.4118H45.3043C45.9466 23.4118 46.4679 23.9388 46.4679 24.5882C46.4679 25.2376 45.9466 25.7647 45.3043 25.7647H19.7042ZM49.9588 25.7647C49.3165 25.7647 48.7952 25.2376 48.7952 24.5882C48.7952 23.9388 49.3165 23.4118 49.9588 23.4118H52.2861C52.9284 23.4118 53.4497 23.9388 53.4497 24.5882C53.4497 25.2376 52.9284 25.7647 52.2861 25.7647H49.9588ZM24.5356 54C24.2191 54 23.9259 53.8753 23.7048 53.6471C23.4884 53.4235 23.3697 53.1271 23.372 52.8141C23.3743 52.4988 23.5 52.2047 23.7211 51.9859C26.053 49.6729 28.4943 46.9012 28.7666 46.5929C28.8132 46.5388 28.8644 46.4894 28.9179 46.4471C28.9714 46.4047 29.004 46.3435 29.011 46.2706C29.018 46.2 28.9993 46.1318 28.9551 46.0753C28.9039 46.0094 28.8295 45.9741 28.7503 45.9741C28.7294 45.9741 28.7108 45.9765 28.6898 45.9812L24.7451 48.6259C24.5542 48.7529 24.3308 48.8212 24.1028 48.8212C23.8537 48.8212 23.6164 48.7435 23.4162 48.5953C23.0252 48.3035 22.8507 47.7929 22.9833 47.3224L26.2415 35.7576C26.3416 35.4141 26.1554 35.0612 25.8273 34.9624C25.7691 34.9459 25.7086 34.9365 25.6481 34.9365C25.5457 34.9365 25.4456 34.9624 25.3548 35.0118C25.2175 35.0871 25.1174 35.2094 25.0662 35.3647L25.05 35.4118C25.043 35.4329 25.036 35.4565 25.0244 35.48L23.0881 42.3459C22.9461 42.8494 22.4876 43.2 21.971 43.2C21.8616 43.2 21.7545 43.1835 21.6498 43.1529C21.3519 43.0682 21.1029 42.8682 20.9516 42.5929C20.8003 42.3176 20.7654 42 20.8492 41.6988L22.8065 34.76C22.8111 34.7412 22.8204 34.7153 22.8297 34.6918L23.4674 32.4447C23.514 32.2847 23.493 32.1153 23.4116 31.9671C23.3301 31.8212 23.1998 31.7129 23.0392 31.6682C22.981 31.6518 22.9228 31.6424 22.867 31.6424C22.7622 31.6424 22.6622 31.6682 22.5667 31.7224C22.4201 31.8047 22.3154 31.9388 22.2712 32.0988L21.6195 34.4141L19.6577 41.3529C19.5157 41.8565 19.0549 42.2071 18.5382 42.2071C18.4335 42.2071 18.3264 42.1929 18.224 42.1624C17.6027 41.9812 17.2443 41.3294 17.4211 40.7059L19.3784 33.7835C19.4086 33.6094 19.3784 33.4588 19.3016 33.3294C19.2155 33.1835 19.0828 33.0824 18.9176 33.04C18.871 33.0282 18.8222 33.0235 18.771 33.0235C18.501 33.0235 18.2543 33.2024 18.1728 33.4588L15.7385 42.0941C15.5966 42.5953 15.1357 42.9459 14.6168 42.9459C14.512 42.9459 14.4073 42.9318 14.3072 42.9035C14.0024 42.8165 13.7533 42.6165 13.6021 42.3412C13.4508 42.0659 13.4159 41.7482 13.4997 41.4471L14.9682 36.2447C15.0613 35.9106 14.8681 35.5647 14.54 35.4706C14.4818 35.4541 14.4259 35.4447 14.3677 35.4447C14.263 35.4447 14.1629 35.4706 14.0699 35.5247C13.9256 35.6071 13.8208 35.7412 13.7743 35.9012L10.5161 47.4659C10.0739 49.0188 10.423 50.68 11.4493 51.9129C11.6495 52.1529 11.7449 52.4588 11.7193 52.7718C11.6937 53.0847 11.5471 53.3694 11.3097 53.5718C11.1002 53.7506 10.8349 53.8494 10.5603 53.8494C10.2159 53.8494 9.89239 53.6965 9.6713 53.4306C8.14228 51.5953 7.62097 49.1224 8.27959 46.8165L11.5378 35.2565C11.7519 34.4918 12.2499 33.8588 12.9365 33.4706C13.3763 33.2235 13.8697 33.0918 14.3677 33.0918C14.64 33.0918 14.9123 33.1294 15.1753 33.2071C15.3755 33.2635 15.571 33.3459 15.7548 33.4471L15.9433 32.7765C16.3483 31.5082 17.4816 30.6706 18.7686 30.6706C19.0083 30.6706 19.2457 30.7012 19.4808 30.76C19.7275 30.8212 19.9625 30.9153 20.1813 31.0376C20.4396 30.4565 20.8748 29.9788 21.4357 29.6635C21.8755 29.4188 22.3689 29.2871 22.8646 29.2871C23.1393 29.2871 23.4116 29.3271 23.6792 29.4024C25.0756 29.8071 25.9483 31.1671 25.8017 32.5788C26.0344 32.5906 26.2648 32.6282 26.4882 32.6965C27.2399 32.9224 27.8636 33.4329 28.2383 34.1341C28.613 34.8353 28.6968 35.64 28.4734 36.4024L26.0809 44.8918L27.5052 43.9365C27.5588 43.9012 27.6076 43.8729 27.6588 43.8494C28.0033 43.6894 28.3687 43.6071 28.7457 43.6071C29.5346 43.6071 30.2724 43.9647 30.7658 44.5882C31.1986 45.1341 31.3941 45.8165 31.3196 46.5129C31.2475 47.1694 30.9403 47.7647 30.4516 48.1976C30.1537 48.5365 27.6868 51.3294 25.3455 53.6518C25.1314 53.88 24.8405 54 24.5356 54ZM40.4705 54C40.1633 54 39.8747 53.88 39.656 53.6635C37.3357 51.36 34.9293 48.64 34.5499 48.2094C34.0612 47.7765 33.754 47.1812 33.6818 46.5247C33.605 45.8306 33.8028 45.1459 34.2357 44.6C34.7314 43.9765 35.4692 43.6188 36.2581 43.6188C36.6351 43.6188 36.9982 43.7012 37.3426 43.8612C37.3985 43.8871 37.452 43.9176 37.5009 43.9506L38.9275 44.9059L36.5304 36.4C36.3093 35.6471 36.3931 34.8424 36.7678 34.1435C37.1448 33.4424 37.7662 32.9341 38.5202 32.7059C38.746 32.6376 38.981 32.5976 39.2161 32.5882C39.1021 31.1482 40.0167 29.8024 41.4293 29.4424C41.6644 29.3835 41.9041 29.3529 42.1438 29.3529C43.2981 29.3529 44.3268 30.0212 44.8109 31.0494C45.032 30.9247 45.2717 30.8306 45.5184 30.7671C45.7511 30.7082 45.9908 30.6776 46.2305 30.6776C47.5175 30.6776 48.6486 31.5082 49.0419 32.7459L49.2281 33.4024C49.3863 33.3153 49.5539 33.2424 49.7284 33.1882C50.0193 33.0965 50.3195 33.0494 50.6198 33.0494C51.0875 33.0494 51.5577 33.1671 51.9766 33.3882C52.6748 33.7553 53.1891 34.3765 53.4265 35.1341C53.4451 35.1929 53.459 35.2471 53.473 35.3035L56.7219 46.8282C57.3782 49.1318 56.8569 51.6024 55.3278 53.4376C55.1068 53.7035 54.7809 53.8565 54.4365 53.8565C54.1619 53.8565 53.8966 53.7576 53.6871 53.5788C53.4497 53.3765 53.3031 53.0918 53.2775 52.7788C53.2519 52.4659 53.3473 52.16 53.5475 51.92C54.5738 50.6871 54.9252 49.0259 54.483 47.4753L51.1993 35.8212C51.1248 35.5788 50.8804 35.4 50.6105 35.4C50.5476 35.4 50.4871 35.4094 50.4266 35.4282C50.1008 35.5318 49.9193 35.8847 50.0217 36.2141L51.4995 41.4518C51.5856 41.7529 51.5483 42.0706 51.3971 42.3459C51.2458 42.6212 50.9991 42.8188 50.6989 42.9059C50.5942 42.9365 50.4871 42.9506 50.3824 42.9506C49.8657 42.9506 49.4049 42.6 49.263 42.0988L46.817 33.4259C46.7448 33.2 46.5028 33.0282 46.2305 33.0282C46.1793 33.0282 46.1304 33.0353 46.0792 33.0471C45.921 33.0871 45.786 33.1906 45.6999 33.3341C45.6138 33.4776 45.5882 33.6471 45.6301 33.8118L47.5827 40.7129C47.7572 41.3365 47.3988 41.9882 46.7821 42.1671C46.6727 42.1976 46.568 42.2118 46.4609 42.2118C45.9443 42.2118 45.4858 41.8612 45.3438 41.3576L43.3819 34.4188L42.7303 32.1012C42.6581 31.8753 42.4161 31.7035 42.1508 31.7035C42.0996 31.7035 42.0484 31.7106 41.9995 31.7224C41.6667 31.8071 41.4642 32.1506 41.548 32.4847L42.1578 34.6424C42.1578 34.64 42.1578 34.64 42.1578 34.64C42.1601 34.64 42.1741 34.6729 42.1857 34.7082L44.1616 41.7012C44.3361 42.3247 43.9777 42.9765 43.361 43.1553C43.2539 43.1859 43.1469 43.2 43.0421 43.2C42.5255 43.2 42.0647 42.8494 41.9227 42.3482L39.9888 35.5059C39.9725 35.4706 39.9585 35.4306 39.9492 35.4024L39.9259 35.3247C39.8794 35.2 39.784 35.0824 39.6536 35.0094C39.5605 34.96 39.4628 34.9341 39.3604 34.9341C39.2999 34.9341 39.2394 34.9435 39.1812 34.96C39.0229 35.0071 38.8926 35.1153 38.8135 35.2635C38.7344 35.4118 38.7157 35.5788 38.7646 35.7412L42.0274 47.32C42.1601 47.7929 41.9856 48.3035 41.5946 48.5929C41.3944 48.7412 41.157 48.8188 40.908 48.8188C40.6776 48.8188 40.4565 48.7506 40.2657 48.6235L36.3163 45.9812C36.2977 45.9765 36.2767 45.9741 36.2558 45.9741C36.1767 45.9741 36.1022 46.0118 36.051 46.0729C35.9602 46.1882 35.9789 46.3553 36.0929 46.4471C36.1418 46.4847 36.1906 46.5341 36.2372 46.5859C36.6933 47.1035 39.0346 49.7482 41.2874 51.9835C41.5085 52.2047 41.6341 52.4988 41.6365 52.8118C41.6388 53.1271 41.5201 53.4235 41.3037 53.6471C41.0802 53.8753 40.7847 54 40.4705 54Z" fill="#6F7377"/>
</g>
</svg>
