<svg  viewBox="0 0 58 58" fill="none" xmlns="http://www.w3.org/2000/svg">
<path d="M29 56C43.9117 56 56 43.9117 56 29C56 14.0883 43.9117 2 29 2C14.0883 2 2 14.0883 2 29C2 43.9117 14.0883 56 29 56Z" stroke="currentColor" stroke-width="4" stroke-linecap="round" stroke-linejoin="round"/>
<path d="M39.7999 39.8001C39.7999 39.8001 35.7499 34.4001 29 34.4001C22.25 34.4001 18.2 39.8001 18.2 39.8001" stroke="currentColor" stroke-width="4" stroke-linecap="round" stroke-linejoin="round"/>
<path fill-rule="evenodd" clip-rule="evenodd" d="M18.2 20.9C18.2 19.4088 19.4088 18.2 20.9 18.2H20.927C22.4181 18.2 23.627 19.4088 23.627 20.9C23.627 22.3912 22.4181 23.6 20.927 23.6H20.9C19.4088 23.6 18.2 22.3912 18.2 20.9Z" fill="currentColor"/>
<path fill-rule="evenodd" clip-rule="evenodd" d="M34.3999 20.9C34.3999 19.4088 35.6087 18.2 37.0999 18.2H37.1269C38.6181 18.2 39.8269 19.4088 39.8269 20.9C39.8269 22.3912 38.6181 23.6 37.1269 23.6H37.0999C35.6087 23.6 34.3999 22.3912 34.3999 20.9Z" fill="currentColor"/>
</svg>
