<svg width="24" height="24" viewBox="0 0 24 24" fill="none" xmlns="http://www.w3.org/2000/svg">
<path fill-rule="evenodd" clip-rule="evenodd" d="M12.8162 16.1636C9.79385 17.465 6.28003 16.0441 4.98107 12.9548C3.67867 9.84799 5.11532 6.28926 8.14921 4.98293C11.1718 3.68149 14.6859 5.10266 15.9846 8.19239C17.2863 11.2892 15.8503 14.8572 12.8162 16.1636ZM13.4094 17.5413C9.60933 19.1775 5.21463 17.3815 3.59798 13.5354C1.98133 9.67993 3.75593 5.24144 7.55599 3.60522C11.3561 1.969 15.7508 3.76508 17.3674 7.61114C18.4946 10.2927 17.9732 13.2667 16.2662 15.3765L20.3994 19.5097C20.6923 19.8026 20.6923 20.2774 20.3994 20.5703C20.1066 20.8632 19.6317 20.8632 19.3388 20.5703L15.2109 16.4424C14.6773 16.8826 14.0743 17.255 13.4094 17.5413Z" fill="currentColor"/>
</svg>
