<svg width="25" height="24" viewBox="0 0 25 24" fill="none" xmlns="http://www.w3.org/2000/svg">
<rect x="5.5" y="9.85083" width="14" height="11.1282" rx="1" stroke="#D8DBE0" stroke-width="1.8"/>
<path d="M12.1213 14.8715V14.6327L11.9356 14.4826C11.776 14.3536 11.6992 14.1845 11.6992 14.0266C11.6992 13.7219 11.9918 13.3869 12.4655 13.3869C12.9393 13.3869 13.2319 13.7219 13.2319 14.0266C13.2319 14.1845 13.1551 14.3536 12.9955 14.4826L12.8098 14.6327V14.8715V17.8256C12.8098 17.9206 12.7063 18.0854 12.4655 18.0854C12.2248 18.0854 12.1213 17.9206 12.1213 17.8256V14.8715Z" fill="#D8DBE0" stroke="#D8DBE0"/>
<path d="M17.2217 9.91509V5.45755C17.2217 2.99571 15.226 1 12.7642 1V1C10.3024 1 8.30664 2.99571 8.30664 5.45755V9.91509" stroke="#D8DBE0" stroke-width="1.8"/>
</svg>
