<svg viewBox="0 0 36 34" fill="none" xmlns="http://www.w3.org/2000/svg">
<path d="M17.824 1.38771C17.896 1.23396 18.1146 1.23405 18.1864 1.38787L22.9134 11.5153C22.9431 11.579 23.004 11.6224 23.0739 11.6297L34.5427 12.8261C34.7165 12.8442 34.7851 13.061 34.6533 13.1758L26.1169 20.6116C26.0618 20.6596 26.0373 20.7337 26.0528 20.805L28.4173 31.6558C28.4538 31.8235 28.2759 31.9563 28.1254 31.8736L18.1018 26.3575C18.0418 26.3245 17.969 26.3245 17.909 26.3575L7.87444 31.8738C7.724 31.9566 7.54613 31.8237 7.58268 31.656L9.94717 20.805C9.96271 20.7337 9.93816 20.6596 9.88312 20.6116L1.34672 13.1758C1.21491 13.061 1.28347 12.8442 1.45734 12.8261L12.9263 11.6297C12.9961 11.6224 13.0569 11.579 13.0867 11.5155L17.824 1.38771Z" fill="#F2F4F7" stroke="#F2F4F7" stroke-width="2.4"/>
</svg>
