<svg width="14" height="14" viewBox="0 0 14 14" fill="none" xmlns="http://www.w3.org/2000/svg">
<g id="Type=star, Size=xs">
<g id="Group 1595">
<path id="Vector" d="M6.7751 1.48613C6.86491 1.29364 7.13866 1.29376 7.2283 1.48632L8.69126 4.62886C8.72834 4.70851 8.80451 4.76286 8.8919 4.77199L12.4296 5.14201C12.6467 5.16472 12.7324 5.43533 12.568 5.57895L9.94449 7.87016C9.87588 7.93007 9.84529 8.02255 9.86464 8.11155L10.5928 11.4621C10.6384 11.6719 10.4158 11.8378 10.2278 11.7341L7.12261 10.0209C7.04748 9.9794 6.95632 9.97938 6.88117 10.0208L3.77207 11.7344C3.58407 11.8381 3.3615 11.6722 3.40709 11.4624L4.13536 8.11155C4.15471 8.02255 4.12412 7.93007 4.05551 7.87016L1.432 5.57895C1.26755 5.43533 1.3533 5.16472 1.57044 5.14201L5.10824 4.77198C5.19555 4.76285 5.27168 4.70859 5.30879 4.62904L6.7751 1.48613Z" stroke="currentColor" stroke-width="1.2"/>
</g>
</g>
</svg>
