<svg viewBox="0 0 34 36" fill="none" xmlns="http://www.w3.org/2000/svg">
<path d="M2 8.40019H5.33333H32" stroke="black" stroke-width="2.8" stroke-linecap="round" stroke-linejoin="round"/>
<path d="M10.3334 8.4V5.2C10.3334 4.35131 10.6846 3.53737 11.3097 2.93726C11.9348 2.33714 12.7827 2 13.6667 2H20.3334C21.2174 2 22.0653 2.33714 22.6904 2.93726C23.3155 3.53737 23.6667 4.35131 23.6667 5.2V8.4M28.6667 8.4V30.8C28.6667 31.6487 28.3155 32.4626 27.6904 33.0627C27.0653 33.6629 26.2174 34 25.3334 34H8.66672C7.78267 34 6.93482 33.6629 6.3097 33.0627C5.68458 32.4626 5.33339 31.6487 5.33339 30.8V8.4H28.6667Z" stroke="black" stroke-width="2.8" stroke-linecap="round" stroke-linejoin="round"/>
<path d="M13.6666 16.3999V25.9999" stroke="black" stroke-width="2.8" stroke-linecap="round" stroke-linejoin="round"/>
<path d="M20.3334 16.3999V25.9999" stroke="black" stroke-width="2.8" stroke-linecap="round" stroke-linejoin="round"/>
</svg>
