<svg width="24" height="24" viewBox="0 0 24 24" fill="none" xmlns="http://www.w3.org/2000/svg">
<path fill-rule="evenodd" clip-rule="evenodd" d="M8 10.5C8 8.01105 10.0111 6 12.5 6C14.9889 6 17 8.01105 17 10.5C17 12.9889 14.9889 15 12.5 15C10.0101 15 8 12.9791 8 10.5ZM12.5 7.33136C10.7463 7.33136 9.33136 8.74634 9.33136 10.5C9.33136 12.2458 10.7473 13.6686 12.5 13.6686C14.2537 13.6686 15.6686 12.2537 15.6686 10.5C15.6686 8.74634 14.2537 7.33136 12.5 7.33136Z" fill="currentColor"/>
<path fill-rule="evenodd" clip-rule="evenodd" d="M6.31996 18.5455C9.75425 15.1331 15.2991 15.1556 18.7106 18.5889C19.0026 18.8827 19.0011 19.3576 18.7072 19.6496C18.4134 19.9415 17.9385 19.94 17.6466 19.6462C14.8183 16.7998 10.2238 16.782 7.37806 19.6087L7.33892 19.6479C7.04603 19.9408 6.57116 19.9408 6.27826 19.6479C5.98537 19.355 5.98537 18.8801 6.27826 18.5872L6.31996 18.5455Z" fill="currentColor"/>
<path fill-rule="evenodd" clip-rule="evenodd" d="M2.5 12C2.5 6.47579 6.97579 2 12.5 2C18.0242 2 22.5 6.47579 22.5 12C22.5 17.5242 18.0242 22 12.5 22C6.97579 22 2.5 17.5242 2.5 12ZM12.5 3.5C7.80421 3.5 4 7.30421 4 12C4 16.6958 7.80421 20.5 12.5 20.5C17.1958 20.5 21 16.6958 21 12C21 7.30421 17.1958 3.5 12.5 3.5Z" fill="currentColor"/>
</svg>
