<svg width="25" height="24" viewBox="0 0 25 24" fill="none" xmlns="http://www.w3.org/2000/svg">
<path d="M12.5 7.33136C10.7463 7.33136 9.33136 8.74634 9.33136 10.5C9.33136 12.2458 10.7473 13.6686 12.5 13.6686C14.2537 13.6686 15.6686 12.2537 15.6686 10.5C15.6686 8.74634 14.2537 7.33136 12.5 7.33136Z" fill="#D818A5"/>
<path fill-rule="evenodd" clip-rule="evenodd" d="M12.5 2C6.97579 2 2.5 6.47579 2.5 12C2.5 17.5242 6.97579 22 12.5 22C18.0242 22 22.5 17.5242 22.5 12C22.5 6.47579 18.0242 2 12.5 2ZM6.74035 18.1551L6.69167 18.2059C7.06252 18.5532 7.46451 18.8676 7.89301 19.1444C10.5649 16.9488 14.4319 16.9537 17.101 19.1483C17.5315 18.8706 17.9353 18.5552 18.3077 18.2066C18.2892 18.1902 18.2707 18.1739 18.2521 18.1577L18.202 18.1157L18.2022 18.1144C14.912 15.2847 10.0188 15.2922 6.74035 18.1551ZM8 10.5C8 8.01105 10.0111 6 12.5 6C14.9889 6 17 8.01105 17 10.5C17 12.9889 14.9889 15 12.5 15C10.01 15 8 12.9791 8 10.5Z" fill="#D818A5"/>
</svg>
