<svg width="24" height="24" viewBox="0 0 24 24" fill="none" xmlns="http://www.w3.org/2000/svg">
<path fill-rule="evenodd" clip-rule="evenodd" d="M3.79629 3.82667C3.58524 4.05025 3.46915 4.34257 3.46915 4.64V19.36C3.46915 19.6634 3.589 19.9597 3.7891 20.166C4.00809 20.3815 4.29439 20.5 4.5857 20.5H18.7973C18.9137 20.5 19.0493 20.4475 19.1607 20.3385C19.2403 20.2606 19.2968 20.1315 19.2968 19.99V17.05C19.2968 16.6358 19.6256 16.3 20.0313 16.3C20.437 16.3 20.7659 16.6358 20.7659 17.05V19.99C20.7659 20.5085 20.5677 21.0394 20.1772 21.4215C19.8185 21.7725 19.3273 22 18.7973 22H4.5857C3.89926 22 3.24693 21.7199 2.76121 21.2377L2.75379 21.2304C2.27043 20.7369 2 20.0548 2 19.36V4.64C2 3.93914 2.27434 3.27312 2.74658 2.77719L2.75379 2.76962C3.23714 2.27611 3.90515 2 4.5857 2H17.5534C18.0588 2 18.5761 2.20038 18.9499 2.59521C19.3199 2.97591 19.522 3.48456 19.522 4.01V6.74C19.522 7.15421 19.1932 7.49 18.7875 7.49C18.3818 7.49 18.0529 7.15421 18.0529 6.74V4.01C18.0529 3.87799 18.0023 3.74903 17.9057 3.65033L17.8947 3.63893C17.8184 3.55763 17.6919 3.5 17.5534 3.5H4.5857C4.28859 3.5 3.99839 3.62237 3.79629 3.82667Z" fill="currentColor"/>
<path fill-rule="evenodd" clip-rule="evenodd" d="M13.8312 11.1297C14.5479 10.3979 15.5187 9.99 16.5348 9.99H20.0313C20.5459 9.99 21.0441 10.1963 21.417 10.5741C21.8037 10.9557 22 11.484 22 12V15.79C22 16.3311 21.7772 16.8327 21.4334 17.1989C21.0592 17.5976 20.5392 17.8 20.0313 17.8C19.9904 17.8 19.9502 17.7966 19.9111 17.79H16.5348C15.5187 17.79 14.5479 17.3821 13.8312 16.6503C13.1145 15.9186 12.715 14.9274 12.715 13.89C12.715 12.8526 13.1145 11.8614 13.8312 11.1297ZM20.1083 16.2941C20.2159 16.2774 20.3108 16.227 20.3727 16.1611C20.4794 16.0473 20.5309 15.9089 20.5309 15.79V12C20.5309 11.8586 20.4744 11.7294 20.3948 11.6515L20.3836 11.6403C20.2869 11.5416 20.1606 11.49 20.0313 11.49H16.5348C15.9054 11.49 15.3091 11.7421 14.8701 12.1903C14.431 12.6386 14.1841 13.2474 14.1841 13.89C14.1841 14.5326 14.431 15.1414 14.8701 15.5897C15.3091 16.0379 15.9054 16.29 16.5348 16.29H20.0313C20.0573 16.29 20.083 16.2914 20.1083 16.2941Z" fill="currentColor"/>
<path fill-rule="evenodd" clip-rule="evenodd" d="M16.9363 14.31C17.1805 14.31 17.3575 14.1089 17.3575 13.88C17.3575 13.6307 17.1606 13.45 16.9363 13.45V12.81C16.3395 12.81 15.8883 13.3111 15.8883 13.88C15.8883 14.4893 16.3791 14.95 16.9363 14.95V14.31Z" fill="currentColor"/>
<path fill-rule="evenodd" clip-rule="evenodd" d="M16.9363 12.81C17.5331 12.81 17.9843 13.3111 17.9843 13.88C17.9843 14.4893 17.4936 14.95 16.9363 14.95V14.31C16.6921 14.31 16.5152 14.1089 16.5152 13.88C16.5152 13.6307 16.7121 13.45 16.9363 13.45V12.81Z" fill="currentColor"/>
<path fill-rule="evenodd" clip-rule="evenodd" d="M5.03829 5.34217C5.38872 5.13346 5.83852 5.25431 6.04293 5.6121C6.10974 5.72903 6.20937 5.83042 6.34662 5.91217C6.44766 5.97234 6.58106 6.00588 6.72306 6.00051C6.73212 6.00017 6.74118 6 6.75024 6H18.7973C19.3119 6 19.81 6.20633 20.1829 6.58408C20.5696 6.96575 20.7659 7.49397 20.7659 8.01V10.74C20.7659 11.1542 20.437 11.49 20.0313 11.49C19.6256 11.49 19.2968 11.1542 19.2968 10.74V8.01C19.2968 7.86855 19.2403 7.7394 19.1607 7.66149L19.1495 7.65033C19.0529 7.55163 18.9265 7.5 18.7973 7.5H6.7625C6.37988 7.51187 5.97071 7.42483 5.60636 7.20783C5.27349 7.00958 4.98135 6.73097 4.77391 6.3679C4.5695 6.01011 4.68786 5.55088 5.03829 5.34217Z" fill="currentColor"/>
</svg>
