<svg width="14" height="14" viewBox="0 0 14 14" fill="none" xmlns="http://www.w3.org/2000/svg">
<path d="M1.00241 13L1.81361 10.0192C1.27909 9.10291 0.998266 8.06079 1.00001 7C1.00001 3.6862 3.68621 1 7 1C10.3138 1 13 3.6862 13 7C13 10.3138 10.3138 13 7 13C5.93967 13.0017 4.898 12.7211 3.98201 12.187L1.00241 13ZM4.83461 4.1848C4.75712 4.18961 4.68141 4.21002 4.61201 4.2448C4.54692 4.28166 4.4875 4.32773 4.43561 4.3816C4.36361 4.4494 4.32281 4.5082 4.27901 4.5652C4.05725 4.85379 3.93797 5.20805 3.94001 5.572C3.94121 5.866 4.01801 6.1522 4.13801 6.4198C4.38341 6.961 4.78721 7.534 5.32061 8.065C5.44901 8.1928 5.57441 8.3212 5.7094 8.4406C6.37144 9.02347 7.16036 9.44382 8.0134 9.66819L8.3548 9.72039C8.4658 9.72639 8.5768 9.71799 8.6884 9.71259C8.86315 9.70357 9.03377 9.65626 9.1882 9.57399C9.26678 9.53352 9.34346 9.48948 9.418 9.44199C9.418 9.44199 9.4438 9.42519 9.493 9.38799C9.574 9.32799 9.6238 9.28539 9.691 9.21519C9.7408 9.1636 9.784 9.10299 9.817 9.03399C9.8638 8.93619 9.9106 8.74959 9.9298 8.59419C9.9442 8.47539 9.94 8.4106 9.9382 8.3704C9.9358 8.3062 9.8824 8.2396 9.8242 8.2114L9.475 8.0548C9.475 8.0548 8.953 7.8274 8.6344 7.6822C8.60081 7.66755 8.56481 7.65921 8.5282 7.6576C8.48715 7.65338 8.44567 7.658 8.40655 7.67114C8.36743 7.68429 8.33158 7.70565 8.3014 7.7338V7.7326C8.2984 7.7326 8.2582 7.7668 7.8244 8.2924C7.7995 8.32585 7.76521 8.35114 7.72589 8.36503C7.68656 8.37892 7.64399 8.38079 7.6036 8.3704C7.56451 8.35994 7.52621 8.34671 7.489 8.3308C7.4146 8.2996 7.3888 8.2876 7.3378 8.2654L7.3348 8.2642C6.99155 8.11433 6.67374 7.9119 6.3928 7.6642C6.3172 7.5982 6.247 7.5262 6.175 7.4566C5.93895 7.23054 5.73323 6.9748 5.563 6.6958L5.5276 6.6388C5.50218 6.6005 5.48162 6.55918 5.46641 6.5158C5.44361 6.4276 5.50301 6.3568 5.50301 6.3568C5.50301 6.3568 5.64881 6.1972 5.71661 6.1108C5.77306 6.03899 5.82573 5.96429 5.8744 5.887C5.9452 5.773 5.9674 5.656 5.9302 5.5654C5.76221 5.155 5.5882 4.7464 5.40941 4.3408C5.37401 4.2604 5.26901 4.2028 5.17361 4.1914C5.14121 4.1878 5.10881 4.1842 5.07641 4.1818C4.99583 4.17779 4.91509 4.1786 4.83461 4.1842V4.1848Z" fill="currentColor"/>
</svg>
