<svg width="32" height="32" viewBox="0 0 32 32" fill="none" xmlns="http://www.w3.org/2000/svg">
<path d="M13.7778 11H12.1111C11.8164 11 11.5338 11.1171 11.3254 11.3254C11.1171 11.5338 11 11.8164 11 12.1111V13.7778M21 13.7778V12.1111C21 11.8164 20.8829 11.5338 20.6746 11.3254C20.4662 11.1171 20.1836 11 19.8889 11H18.2222M18.2222 21H19.8889C20.1836 21 20.4662 20.8829 20.6746 20.6746C20.8829 20.4662 21 20.1836 21 19.8889V18.2222M11 18.2222V19.8889C11 20.1836 11.1171 20.4662 11.3254 20.6746C11.5338 20.8829 11.8164 21 12.1111 21H13.7778" stroke="currentColor" stroke-width="1.2" stroke-linecap="round" stroke-linejoin="round"/>
</svg>
